<?xml version="1.0" standalone="no"?>
<!DOCTYPE svg PUBLIC "-//W3C//DTD SVG 1.1//EN" "http://www.w3.org/Graphics/SVG/1.1/DTD/svg11.dtd">
<svg xmlns="http://www.w3.org/2000/svg">
<defs>
<font id="icofont" horiz-adv-x="1000" >
<font-face font-family="IcoFont" font-weight="400" font-style="Regular" units-per-em="1000" ascent="850" descent="-150" />
<missing-glyph horiz-adv-x="1000" />
<glyph glyph-name="dart" horiz-adv-x="1000" unicode="&#xe808;" d="M272 487c-27-43-42-93-42-147 0-155 126-281 280-281 155 0 281 126 281 281s-126 281-281 281c-54 0-104-16-147-42l38-38c32 18 70 28 109 28 126 0 229-103 229-229 0-126-103-229-229-229s-228 103-228 229c0 40 10 77 27 109l-37 38z m104-105c-4-13-6-27-6-42 0-77 63-140 140-140 77 0 140 63 140 140s-63 140-140 140c-15 0-29-2-42-6l45-46c48-1 85-40 85-88 0-49-39-89-88-89-48 0-87 38-88 86l-46 45z m-232 178c-39-65-61-140-61-220 0-236 192-428 427-428 236 0 427 192 427 428 0 236-191 427-427 427-80 0-155-22-219-61l37-38c54 30 116 47 182 47 207 0 376-168 376-375 0-207-169-376-376-376s-375 169-375 376c0 66 17 128 47 182l-38 38z m-81 136l73 18 18 74 138-138-6-49 244-244c10-10 10-26 0-36-10-11-27-11-37 0l-243 243-50-5-137 137z" />
<glyph glyph-name="shield-alt" horiz-adv-x="1000" unicode="&#xe81a;" d="M502-88h-4c-1 1-2 2-3 2-52 26-100 58-144 96-62 53-113 115-146 190-22 51-36 104-36 159-1 106 0 212-1 318 0 19 7 31 21 42 21 17 45 28 71 36 49 17 100 25 151 29 13 1 25 0 38 4h102c19-2 37-4 56-6 49-4 97-13 144-31 25-10 50-21 70-42 7-7 10-15 10-25 0-105 1-210 0-315 0-63-14-124-42-181-43-89-109-157-188-215-31-23-65-43-99-61z m-2 443l260 0c22 0 22 0 22 22 0 85 0 171 0 257 0 8-3 14-7 20-18 19-40 29-63 38-66 24-135 29-205 31-7 0-7-3-7-9 0-32 0-65 0-98l0-261c-91 0-183 0-274 0-7 0-7-3-7-8 3-62 22-120 54-173 46-76 111-132 187-175 12-7 25-14 40-20l0 376z" />
<glyph glyph-name="sand-clock" horiz-adv-x="1000" unicode="&#xe819;" d="M465 434c-26 39-47 82-59 127-2 6-1 13 2 18s8 9 13 9h158c5 0 10-3 13-9 3-5 4-12 2-18-12-45-33-88-59-127-12-18-19-41-19-64 0-11-7-20-16-20-9 0-16 9-16 20 0 23-7 46-19 64z m51-144c0 11-7 20-16 20-9 0-16-9-16-20 0-28-14-57-39-80-53-49-93-102-119-158-2-7-2-14 1-20 2-6 8-10 13-10h320c6 0 11 4 14 10 3 6 3 13 0 20-26 56-66 109-119 158-25 23-39 52-39 80z m296-338c0-22-15-40-32-40h-560c-17 0-32 18-32 40 0 22 15 40 32 40h10c11 155 84 274 140 358-56 84-129 203-140 358h-9c-18 0-32 18-32 40 0 22 14 40 32 40h559c17 0 32-18 32-40 0-22-15-40-32-40h-10c-11-155-84-274-140-358 56-84 129-203 140-358h9c18 0 33-18 33-40z m-106 40c-12 140-85 248-140 328l-3 4c-10 15-10 37 0 52l3 4c55 80 128 188 140 328h-412c12-140 85-248 140-328l3-4c10-15 10-37 0-52l-3-4c-55-80-128-188-140-328h412z" />
<glyph glyph-name="bank-alt" horiz-adv-x="1000" unicode="&#xe961;" d="M929 26h-858c-5 0-8-4-8-8v-58c0-5 3-8 8-8h859c4 0 8 3 8 8v58c0 4-4 8-9 8z m-47 547c5 0 7 1 5 2-1 1-2 1-3 1-124 56-248 112-372 169-11 4-19 4-30-1-94-44-190-87-285-130-26-12-52-24-78-36-4-2-7-4-7-4 0-1 4-1 8-1h762z m-382 124c21 0 38-17 38-38 0-20-17-37-37-37-21-1-38 17-39 37 0 21 17 38 38 38z m-226-565c5 0 8 3 8 8v317c0 5-3 8-8 8h-91c-5 0-8-3-8-8v-317c0-5 3-8 8-8h91z m182-1c5 0 8 4 8 8v318c0 5-3 8-8 8h-91c-5 0-8-3-8-8v-318c0-4 3-8 8-8h91z m365 1c4 0 8 3 8 8v318c0 4-4 8-8 8h-92c-4 0-8-4-8-8v-318c0-5 4-8 8-8h92z m-183 0c5 0 8 3 8 8v318c0 4-3 8-8 8h-91c-5 0-8-4-8-8v-318c0-5 3-8 8-8h91z m-522 364h769c4 0 8 3 8 8v23c0 4-4 8-8 8h-769c-4 0-8-4-8-8v-23c0-5 4-8 8-8z m-8-402v-24c0-4 4-8 8-8h769c5 0 8 4 8 8v27c0 3-4 5-8 5h-769c-4 0-8-4-8-8z" />
<glyph glyph-name="bank" horiz-adv-x="1000" unicode="&#xe962;" d="M94 474h812s23 19 0 43l-406 239-406-239s-28-26 0-43z m839-497l-49 43c-3 2-9 4-14 4l-730-1c-5 0-11-2-14-4l-58-42c-3-2-5-6-5-9v-19c0-2 4-5 9-5h857c5 0 9 3 9 5v19c0 3-3 7-5 9z m-129 464h75v-375h-75v375z m-122 0h74v-375h-74v375z m-427 0h75v-375h-75v375z m-122 0h75v-375h-75v375z m369-374c5 0 11 1 16 2v46c24 5 41 15 54 30 12 14 18 32 18 54 0 13-2 23-5 32s-7 15-13 21c-6 6-13 11-21 15-8 5-17 9-27 13l-23 10c-4 1-8 3-12 5-4 2-7 4-10 6-4 3-6 6-8 9-2 4-3 9-3 14 0 6 2 11 4 14 2 4 5 7 9 9 4 2 8 4 12 4 5 1 9 1 14 1 7 0 14 0 19-1 6 0 11-1 16-2s9-3 13-4c4-2 8-3 12-5 6 15 11 30 12 45-11 4-21 6-30 9-10 2-20 3-31 4v40c-6 2-11 3-17 3-5 0-11-1-17-3v-41c-23-3-41-11-55-25-13-13-20-32-20-55 0-11 2-21 4-28 3-8 7-14 12-20 5-6 11-10 18-14s15-8 24-12l21-9c4-2 9-4 13-6 5-2 9-4 13-7 4-2 7-6 9-10 3-4 4-9 4-15 0-13-4-22-13-27-9-6-22-9-39-9-11 0-21 1-31 3-9 1-20 5-30 9-3-8-6-16-8-24-2-8-3-15-4-23 6-3 13-5 19-7 6-2 12-3 18-4 6-1 12-2 19-3 7 0 15-1 23-1h3v-41c6-1 12-2 18-2z" />
<glyph glyph-name="barcode" horiz-adv-x="1000" unicode="&#xe963;" d="M128 728h-60c-3 0-5-3-5-6v-744c0-3 2-6 5-6h60c3 0 6 3 6 6v744c0 3-3 6-6 6z m659 0h-59c-4 0-6-3-6-6v-744c0-3 2-6 6-6h59c4 0 6 3 6 6v744c0 3-2 6-6 6z m-359 0h-60c-3 0-5-3-5-6v-744c0-3 2-6 5-6h60c3 0 6 3 6 6v744c0 3-3 6-6 6z m195 0h-36c-4 0-6-3-6-6v-744c0-3 2-6 6-6h36c3 0 6 3 6 6v744c0 3-3 6-6 6z m-86 0h-24c-3 0-6-3-6-6v-744c0-3 3-6 6-6h24c3 0 6 3 6 6v744c-1 3-3 6-6 6z m-262 0h-31c-4 0-6-3-6-6v-744c0-3 2-6 6-6h31c3 0 6 3 6 6v744c0 3-3 6-6 6z m-64 0h-24c-3 0-6-3-6-6v-744c0-3 3-6 6-6h24c3 0 6 3 6 6v744c0 3-3 6-6 6z m721 0h-31c-4 0-6-3-6-6v-744c0-3 2-6 6-6h31c3 0 6 3 6 6v744c0 3-3 6-6 6z m-64 0h-24c-3 0-6-3-6-6v-744c0-3 3-6 6-6h24c3 0 6 3 6 6v744c0 3-3 6-6 6z" />
<glyph glyph-name="bill-alt" horiz-adv-x="1000" unicode="&#xe964;" d="M500 525c75 0 136-79 136-175s-61-175-136-175c-75 0-136 79-136 175s61 175 136 175z m-437-424h875v498h-875v-498z m157 49c0 67-54 122-122 122v156c68 0 122 55 122 122h560c0-67 54-122 122-122v-156c-68 0-122-55-122-122l-560 0z" />
<glyph glyph-name="businessman" horiz-adv-x="1000" unicode="&#xe968;" d="M500 350c106 0 191 98 191 219s-85 219-191 219c-106 0-191-98-191-219s85-219 191-219z m-105 278c13-34 55-59 105-59s137 6 137-28c0-75-61-136-137-136s-137 61-137 136c0 34 13 64 32 87z m433-497c0 91-73 164-164 164h-125l12-11c6-6 6-16 0-22l-26-24c-7-6-10-17-6-24l50-123c3-7 2-19-3-25l-57-85c-5-7-13-7-17 0l-58 85c-5 6-6 18-3 25l50 123c4 7 1 18-6 24l-26 24c-6 6-6 16 0 22l12 11h-125c-91 0-164-73-164-164v-164c0-30 24-55 55-55h546c31 0 55 25 55 55v164z" />
<glyph glyph-name="businesswoman" horiz-adv-x="1000" unicode="&#xe969;" d="M330 390h170c-62 0-113 51-113 114v46c0 6 5 11 10 11 103 7 103 113 103 113s0-106 103-113c6 0 11-5 11-11v-46c0-63-51-114-114-114h171c24 0 44 15 53 36 4 11-6 21-17 25-21 8-36 29-36 53v113c0 94-77 171-171 171-94 0-170-77-170-171v-113c0-24-15-45-36-53-11-4-21-14-17-25 8-21 29-36 53-36z m341-80h-93c-11 0-14-7-6-15l27-27c8-8 10-23 3-32l-90-136c-6-9-17-9-23 0l-90 136c-7 9-5 24 3 32l27 27c8 8 5 15-6 15h-93c-63 0-113-51-113-114v-227c0-31 25-57 56-57h454c32 0 57 26 57 57v227c0 63-51 114-113 114z" />
<glyph glyph-name="coins" horiz-adv-x="1000" unicode="&#xe96b;" d="M598 497c0 148-120 268-268 268s-267-120-267-268 120-267 267-267 268 120 268 267z m-459 0c0 106 86 191 191 191s191-85 191-191c0-105-85-191-191-191s-191 86-191 191z m202-146v22c52 3 87 27 87 73 0 54-41 67-87 77v66c39-1 39-38 61-38 12 0 22 8 22 22 0 34-56 51-83 52v18c0 6-4 12-10 12-6 0-10-6-10-12v-18c-44-2-83-26-83-74 0-38 31-61 83-70v-73c-58 3-28 51-67 51-13 0-21-8-21-22 0-28 29-63 88-64v-22c0-6 4-12 10-12 6 0 10 6 10 12z m0 126c19-4 43-11 43-35 0-23-22-32-43-34v69z m-21 50c-26 5-39 15-39 33 0 15 16 28 39 29v-62z m563-69h-239c-5-39-17-76-36-109h275c30 0 55 24 55 54 0 30-25 55-55 55z m0-138h-292c-33-47-78-85-131-109h423c30 0 54 24 54 55 1 30-24 54-54 54z m0 275h-250c9-29 14-61 14-94 0-5 0-10 0-15h236c30 0 54 25 54 55 1 30-24 54-54 54z m0-412h-570c-31 0-55-25-55-55 0-30 24-55 55-55h570c30 0 55 25 55 55 0 30-25 55-55 55z m0-138h-570c-31 0-55-25-55-55 0-30 24-54 55-54h570c30 0 55 24 55 54 0 30-25 55-55 55z m0 579c30 0 55 24 55 54s-25 55-55 55h-337c32-31 59-68 76-109h261z" />
<glyph glyph-name="company" horiz-adv-x="1000" unicode="&#xe96c;" d="M504 654c32 0 59 30 59 67s-27 67-59 67-58-30-58-67 26-67 58-67z m-32 85c4-11 17-18 32-18 15 0 42 1 42-9 0-23-19-41-42-41-23 0-42 18-42 41 0 11 4 20 10 27z m-51-219h167c9 0 16 8 16 17v50c0 28-22 50-50 50h-38l4-3c2-2 2-5 0-7l-8-7c-2-2-3-6-2-8l15-37c1-3 1-6-1-8l-17-26c-2-2-4-2-5 0l-18 26c-1 2-2 6-1 8l16 37c1 3 0 6-2 8l-8 7c-2 2-2 5 0 7l3 3h-38c-27 0-50-22-50-50v-50c0-9 7-17 17-17z m25-407c0-37 26-67 58-67s58 30 58 67c0 37-26 67-58 67-32 0-58-30-58-67z m100-8c0-23-19-42-42-42-23 0-42 19-42 42 0 10 4 19 10 26 4-10 17-18 32-18 15 0 42 2 42-8z m8-75h-38l4-4c2-2 2-5 0-7l-8-7c-2-2-3-5-2-7l15-38c1-2 1-6-1-8l-17-26c-2-2-4-2-5 0l-18 26c-1 2-2 6-1 8l16 38c1 2 0 5-2 7l-8 7c-2 2-2 5 0 7l3 3h-38c-27 0-50-22-50-50v-50c0-9 7-17 17-17h167c9 0 17 8 17 17v50c-1 28-23 51-51 51z m214 83c0-37 26-67 59-67s58 30 58 67c0 37-26 67-58 67-33 0-59-30-59-67z m100-8c0-23-18-42-41-42-23 0-42 19-42 42 0 10 4 19 10 26 4-10 16-18 32-18 15 0 41 2 41-8z m9-75h-39l4-4c2-2 2-5 0-7l-8-7c-2-2-3-5-2-7l16-38c1-2 0-6-1-8l-18-26c-1-2-3-2-5 0l-17 26c-2 2-2 6-1 8l15 38c1 2 0 5-2 7l-8 7c-2 2-2 5 0 7l4 4h-39c-27 0-50-23-50-51v-50c0-9 8-16 17-16h167c9 0 17 7 17 16v50c0 28-23 51-50 51z m-704 16c32 0 58 30 58 67 0 37-26 67-58 67s-59-30-59-67c0-37 27-67 59-67z m-32 85c4-10 17-18 32-18 15 0 42 2 42-8 0-23-19-42-42-42-23 0-42 19-42 42 0 10 4 19 10 26z m82-101h-38l3-4c2-2 2-5 0-7l-8-7c-1-2-2-5-1-7l15-38c1-2 1-6-1-8l-18-26c-1-2-3-2-5 0l-17 26c-2 2-2 6-1 8l15 38c1 2 0 5-2 7l-8 8c-2 1-2 4 0 6l4 4h-38c-28 0-50-23-50-51v-50c0-9 7-16 16-16h167c10 0 17 7 17 16v50c0 28-22 51-50 51z m-48 197c12 0 22 10 22 22v88h285v-88c0-12 10-22 22-22 12 0 22 10 22 22v88h285v-88c0-12 10-22 22-22s22 10 22 22v110c0 12-10 22-22 22h-307v66c0 12-10 21-22 21s-22-9-22-21v-66h-307c-12 0-22-10-22-22v-110c0-12 10-22 22-22z" />
<glyph glyph-name="contact-add" horiz-adv-x="1000" unicode="&#xe96d;" d="M134 88c-14 0-26 12-26 27v523c0 15 12 27 26 27h640c14 0 26-12 26-27v-239c16-2 31-6 46-12v289c0 14-12 26-27 26h-730c-15 0-26-12-26-26v-599c0-14 11-26 26-26h479c-7 12-13 24-18 37h-416z m165 245h-20c-41 0-75-33-75-75v-21c0-13 11-24 24-24h252c13 0 23 11 23 24v21c0 42-33 75-75 75h-20c-10 0-18 9-18 19 0 4 2 7 4 10 12 11 21 26 28 42 2-2 3-2 5-2 10 0 23 24 23 41 0 16-1 29-12 29-1 0-3 0-4 0-1 44-12 100-80 100-71 0-80-55-80-100-1 0-2 0-3 0-11 0-13-13-13-29 0-17 13-41 24-41 1 0 3 0 4 1 7-16 16-30 27-41 3-3 4-6 4-10 0-10-8-19-18-19z m381 190c0 9-8 18-18 18h-211c6-14 11-31 12-51 5-3 8-7 11-13h188c10 0 18 8 18 18v28z m-2-151c1 2 2 5 2 7v28c0 10-8 18-18 18h-184c-5-19-17-39-34-44l-1-3v-16h213c7 3 14 7 22 10z m-125-125c9 23 21 44 37 63h-71c9-15 15-33 15-52v-11h19v0z m332 55c-31 31-73 51-120 52h-6c-50 0-94-20-126-52-32-32-53-77-53-126 0-25 6-49 15-71 9-21 22-40 38-56 32-32 76-52 126-52 99 0 179 80 179 179 0 49-20 94-53 126z m-41-152h-59v-59h-52v59h-58v52h58v58h52v-58h59v-52z" />
<glyph glyph-name="id-card" horiz-adv-x="1000" unicode="&#xe970;" d="M476 212h-22c-11 0-20 9-20 20 0 4 2 8 5 10 12 13 23 29 30 46 2-1 3-2 5-2 12 0 26 27 26 45 0 18-2 32-13 32-2 0-3 0-5-1-1 49-13 110-88 110-78 0-87-61-88-109-1 0-2 0-3 0-12 0-13-14-13-32s14-45 26-45c1 0 2 0 4 1 7-17 18-33 30-45 3-3 4-7 4-11 0-11-9-20-20-20h-21c-46 0-82-36-82-82v-23c0-14 11-26 26-26h275c14 0 26 12 26 26v23c0 46-37 83-82 83z m274 226h-231c7-15 12-33 14-56 5-3 8-8 11-13h206c11 0 19 8 19 19v30c0 11-8 20-19 20z m0-126h-201c-5-21-19-43-37-48l-2-3v-19h240c11 0 19 9 19 20v30c0 11-8 20-19 20z m0-126h-157c11-17 17-36 17-57v-13h140c11 0 19 9 19 20v30c0 11-8 20-19 20z m69 462h-195c-2 0-3 2-3 4v104c0 1-2 3-4 3h-219c-2 0-3-2-3-3v-104c0-2-2-4-4-4h-210c-65 0-118-53-118-118v-471c0-65 53-118 118-118h638c66 0 119 53 119 118v471c0 65-53 118-119 118z m-369 52c0 1 2 3 3 3h109c1 0 3-2 3-3v-108c0-2-2-3-3-3h-108c-2 0-4 1-4 3 0 0 0 108 0 108z m432-641c0-34-28-62-63-62h-638c-34 0-62 28-62 62v471c0 34 28 62 62 62h210c2 0 3-1 3-3v-53c0-2 2-3 4-3h220c1 0 3 1 3 3v53c0 2 1 3 3 3h195c35 0 63-28 63-62l0-471z" />
<glyph glyph-name="meeting-add" horiz-adv-x="1000" unicode="&#xe971;" d="M313 460c0 5-3 8-8 8h-92c-5 0-9-3-9-8v-92c0-5 4-8 9-8h92c5 0 8 3 8 8v92z m155 8h-93c-4 0-8-3-8-8v-92c0-5 4-8 8-8h93c4 0 8 3 8 8v92c0 5-4 8-8 8z m-163-162h-92c-5 0-9-4-9-8v-93c0-4 4-8 9-8h92c5 0 8 4 8 8v93c0 4-3 8-8 8z m163 0h-93c-4 0-8-4-8-8v-93c0-4 4-8 8-8h93c4 0 8 4 8 8v93c0 4-4 8-8 8z m70 162c-5 0-8-3-8-8v-92c0-5 3-8 8-8h92c5 0 8 3 8 8v92c0 5-3 8-8 8h-92z m-315 158h21c13 0 24 11 24 24v114c0 13-11 24-24 24h-21c-13 0-24-11-24-24v-113c0-14 11-25 24-25z m377 0h21c13 0 24 11 24 24v114c0 13-11 24-24 24h-21c-13 0-24-11-24-24v-113c0-14 11-25 24-25z m-148-479h-284c-22 0-41 18-41 41v329h590v-127c4 0 9 0 13 0 17 0 33-2 48-4v268c0 30-24 55-54 55h-45v-59c0-32-26-58-58-58h-21c-32 0-58 26-58 58v59h-240v-59c0-32-26-58-58-58h-21c-32 0-58 26-58 58v59h-45c-30 0-55-25-55-55v-521c0-30 25-55 55-55h336c-3 17-5 34-5 52 0 5 0 11 1 17z m421 125c-37 37-87 60-142 62h-7c-59 0-111-23-149-62-38-38-62-91-62-149 0-30 6-58 17-83 11-25 26-47 45-66 38-38 90-61 149-61 116 0 211 94 211 210 0 58-24 111-62 149z m-49-180h-70v-69h-61v69h-69v62h69v69h61v-69h70v-62z" />
<glyph glyph-name="money-bag" horiz-adv-x="1000" unicode="&#xe972;" d="M813 52c8 25 12 53 12 87 0 184-125 323-228 387-15 9-18 26-7 39 118 142 76 225 9 166-73-64-123 22-259 54-104 25 8-142 66-221 11-14 6-32-9-42-102-65-222-202-222-383 0-36 5-66 13-91 6-17 5-42-2-58-6-19-6-34 3-42 8-8 23-8 40-3 17 5 41 5 58-2 57-25 131-31 213-31 83 0 158 6 216 32 16 7 40 7 57 2 19-7 35-6 43 2 10 9 9 26 1 47-7 16-9 41-4 57z m-239 61c-12-15-29-25-52-30v-44c-5-2-11-2-16-2-6 0-12 0-17 2v40h-4c-8 0-16 1-22 1-7 1-13 2-19 3-6 1-12 2-18 4-6 2-12 4-18 7 0 7 2 15 4 22 2 8 4 16 7 24 11-5 21-7 31-9 9-2 19-2 30-2 16 0 29 2 37 8 9 5 14 14 14 26 0 6-1 12-4 15-2 5-5 8-9 10-4 3-8 5-12 7-5 2-10 4-14 6l-20 8c-9 4-16 8-23 12-7 4-13 9-18 14-5 5-9 12-12 19-2 8-4 17-4 28 0 23 7 41 20 54 13 14 31 21 54 24v41c5 2 11 2 16 2 6 0 11 0 17-2v-40c10 0 20-2 30-4 9-2 19-5 30-9-2-15-6-29-13-43-4 1-7 3-11 4-4 2-8 3-13 4s-10 2-15 3c-6 0-12 1-19 1-5 0-9-1-14-1-4-1-8-2-12-5-3-2-6-4-8-8-3-4-4-9-4-15 0-5 1-9 3-13 1-3 4-6 7-9s6-4 10-6l12-5 23-10c10-4 18-8 26-12 8-4 15-9 20-15s10-13 13-21c3-8 5-19 5-31 0-21-6-39-18-53z" />
<glyph glyph-name="pie-chart" horiz-adv-x="1000" unicode="&#xe973;" d="M451 712c-214 0-388-174-388-389s174-388 388-388 389 174 389 388h-389v389z m487-344c0 107-44 204-114 275l-275-275h389z m-438 398v-389l275 275c-76 76-175 114-275 114z" />
<glyph glyph-name="chart-line-alt" horiz-adv-x="1000" unicode="&#xe980;" d="M1000-87h-552c-125 0-250 0-375-1-2 0-3 1-4 1v124h58v63h-58v125h58v63h-58v124h58v63h-58v124h58v63h-6c-1 1-3 1-4 1-16-1-31 0-47-1h-1v125h58v63h-120v0h-7c0-330 0-661 0-991 0-5 4-9 9-9 327 0 655 0 982 0 1 0 3 0 4 0 4-1 5 1 5 5 0 19 0 38 0 58z m-791 429c6-5 8-4 13 1 19 24 39 47 58 71 6 7 9 7 17 2 171-114 342-228 514-343 7-5 10-4 14 4 21 39 43 78 64 117 3 6 5 7 12 3 15-8 30-16 47-25-1 63-3 125-4 188-54-33-107-65-161-98 17-9 32-18 48-26 5-3 6-5 3-11-11-18-21-37-31-56-6-10-6-10-16-4-168 112-336 224-504 336-4 3-8 7-13 0-33-40-66-79-99-118-3-4-3-6 1-10 13-10 25-20 37-31z m267 67c5-3 7-2 10 2 6 8 13 15 19 23 4 6 7 5 13 2 59-40 118-79 177-119 6-4 8-4 12 2 19 35 39 70 59 105 39 68 79 137 118 206 4 7 6 8 13 4 12-8 24-14 36-21 10-6 10-6 10 5 0 56-1 113-1 170 0 2 1 4-2 7-53-31-106-62-161-94 17-10 32-19 47-27 6-3 7-6 3-12-48-84-95-167-143-251-4-7-6-8-13-3-56 37-112 74-167 112-4 2-7 6-12 0-20-25-41-50-61-74-4-4-4-6 1-9 14-9 28-18 42-28z m-265-318c1-1 3-2 5-4 2 2 4 4 5 6 59 71 118 141 176 211 4 5 4 7-1 10-14 9-28 18-41 28-5 3-8 2-11-2-15-18-29-35-44-53-42-51-85-102-128-153-3-4-6-6 0-10 13-11 26-22 39-33z" />
<glyph glyph-name="chart-histogram" horiz-adv-x="1000" unicode="&#xe97f;" d="M275 255c-38-42-77-84-115-127-16-17-25-17-42-1-8 8-17 17-25 25-11 11-31 3-31-13v-271c0-10 8-18 18-18h209c10 0 18 8 18 18v375c0 17-21 24-32 12z m312 17c-21-23-42-45-62-68-17-17-26-18-43-1-24 22-47 44-70 65-13 12-34 3-34-14v-384c0-11 9-20 20-20h204c11 0 20 9 20 20v388c0 19-22 28-35 14z m339 177c-2 1-4 3-7 5-23 23-46 46-69 69-4 5-10 7-16 7h0c-6 0-12-3-16-7-40-43-80-87-120-130-3-4-5-9-5-15v-506c0-12 9-22 21-22h202c12 0 21 10 21 22v559c1 8-4 14-11 18z m-403-146c96 105 192 209 288 313 7 7 10 8 17 0 24-25 49-49 73-73 11-11 26-10 33 2 2 5 3 11 3 16 0 89 0 177 0 266 0 16-8 23-24 23-45 0-89 0-134 0s-89 0-134 0c-10 0-18-3-21-13-4-9-1-16 6-23 28-27 54-55 82-81 7-7 8-11 1-19-72-79-143-158-213-238-7-7-11-6-17 0-43 39-86 79-130 118-13 12-23 12-35-1-83-89-165-179-247-268-11-13-11-22 1-34l62-61c16-16 25-16 40 1 56 62 113 124 169 186 6 6 9 7 16 0 41-38 82-76 123-115 17-15 26-15 41 1z" />
<glyph glyph-name="chart-histogram-alt" horiz-adv-x="1000" unicode="&#xe97e;" d="M974 642c-78 68-156 136-234 204-6 5-4 6-11 0l-222-194-14-13 0-1h6c40 0 80 0 120 0 4 0 6 0 5-5-4-22-9-44-16-65-50-167-181-306-350-358-58-18-116-25-176-21-16 1-31 3-46 5-8 1-14-5-13-12 2-5 5-7 10-8 104-36 211-45 320-28 93 15 180 47 259 100 138 94 224 222 253 387 1 4 3 5 7 5 33 0 66 0 100 0 1 0 3 0 5 1 0 2-2 2-3 3z m-79-413v376c0 1 0 2-1 2-1 0-2-1-2-2 0-1-1-1-1-2-20-93-59-176-118-250-2-3-2-5-2-8 0-163 0-326 0-490 0-4 1-5 5-5 38 0 75 0 113 0 7 0 6-1 6 7 0 124 0 248 0 372z m-186 53c-2-1-3-2-4-3-36-32-75-61-118-84-3-2-3-4-3-7 0-111 0-222 0-333 0-4 1-5 5-5 38 0 75 0 113 0 6 0 7 2 7 7-1 139-1 279-1 418v7h1z m-187-126c0 6 0 6-6 4-37-16-75-28-114-36-4-1-5-3-5-7 0-87 0-174 0-261 0-5 1-6 6-6 37 0 75 0 113 0 5 0 6 1 6 6 0 50 0 100 0 150v150z m-379-41c-39 6-77 15-115 28-4 1-5 0-5-4 0-47 0-94 0-142 0-47 0-94 0-141 0-5 2-6 7-6 37 0 75 0 113 0 4 0 5 1 5 5 0 85 0 170 0 254 0 4-1 6-5 6z m192-8c0 4-1 5-5 5-38-5-76-6-115-4-4 0-5-1-5-6 0-82 0-164 0-247 0-4 1-5 6-5 37 0 75 0 113 0 5 0 6 2 6 6 0 42 0 83 0 125 0 42 0 84 0 126z" />
<glyph glyph-name="chart-growth" horiz-adv-x="1000" unicode="&#xe97d;" d="M938-49v-22c0-9-8-16-17-16h-842c-9-1-16 7-16 16v842c0 9 7 17 16 17h22c9 0 16-8 16-17v-788c0-9 7-16 16-16h788c9 0 17-7 17-16z m-469 529l193-48c8-2 19 2 24 10l60 101c5 8 15 10 22 6l43-26c7-5 14-1 14 8l3 186c0 9-6 12-14 8l-162-90c-8-4-8-12-1-16l43-26c7-4 10-14 5-22l-40-66c-4-8-15-12-24-10l-182 46c-9 2-21-2-27-8l-207-207c-7-6-7-16 0-23l15-16c7-6 17-6 23 0l185 186c7 6 19 9 27 7z m-62-458h77c9 0 16 7 16 16v362c0 9-7 18-15 20-8 2-20-2-26-8l-57-57c-6-6-11-19-11-28v-289c0-9 7-16 16-16z m-180 180v-164c0-9 7-16 16-16h77c9 0 16 7 16 16v235c0 9-5 11-11 4l-68-67c-6-6-30 1-30-8z m492 173v-337c0-9 7-16 16-16h77c9 0 16 7 16 16v395c0 9-6 20-14 24l-27 16c-8 5-18 3-22-5l-38-63c-5-8-8-21-8-30z m-55-337v321c0 9-7 18-16 20l-78 19c-8 2-15-3-15-12v-348c0-9 7-16 16-16h77c9 0 16 7 16 16z" />
<glyph glyph-name="chart-flow" horiz-adv-x="1000" unicode="&#xe97c;" d="M359 150c93 0 187 0 281 0 6 0 9-2 11-9 5-25 24-41 50-41 49 0 97 0 145 0 32 0 53 20 54 51 0 16 0 32 0 48-1 30-20 51-50 51-50 1-100 1-150 0-27 0-44-16-49-42-2-6-4-8-10-8-94 0-188 0-282 0-6 0-9 1-9 8 1 61 1 122 0 183 0 6 2 9 9 9 94-1 188-1 282 0 6 0 9-2 10-9 4-25 24-41 49-41 50 0 100 0 150 0 26 0 47 18 49 44 2 21 2 41 0 62-2 25-23 44-49 44-50 0-99 0-149 0-26 0-45-16-50-42-1-6-4-8-10-8-94 0-188 0-282 0-7 0-8 3-8 9 0 26 0 53-1 79 0 9 3 11 12 11 29 0 59 0 89 0 56 2 99 45 99 102 0 31-1 61 0 92 3 54-39 108-105 107-24-1-49 0-74 0-59 0-119 1-179-1-52-2-91-47-92-99 0-31 0-62 0-94 0-7 0-15 2-23 9-50 49-83 100-84 29 0 57 0 86 0 10 1 12-2 12-12 0-87 0-175 0-262v-61c0-68 0-135 0-203 0-9-2-11-11-11-12 1-24 1-36 1-31-1-52-21-53-52 0-15 0-29 0-44 0-35 20-55 55-55 13 0 26 0 39 0l101 0c31 0 48 14 55 44 1 6 5 6 10 6 60 0 121 0 181 0 6 0 9-1 10-8 4-25 21-41 46-41 52-1 104-1 156 0 26 0 45 20 47 46 1 18 1 37 0 56-2 27-23 47-50 47-50 1-100 1-150 0-25 0-45-17-49-41-1-7-3-9-10-9-60 1-120 0-180 0-7 0-10 2-12 9-4 25-24 41-49 42-14 0-27 0-40-1-8 0-9 3-9 10 0 44 0 87 0 131-1 7 1 9 8 9z" />
<glyph glyph-name="chart-flow-2" horiz-adv-x="1000" unicode="&#xe97b;" d="M836 8c-14 54-56 91-114 97-47 5-98-19-124-68-2-5-4-9-10-9-57 1-115 0-172 1-39 0-64 20-75 54-2 9-4 18-4 27l0 199c0 7 2 7 7 5 25-10 50-14 76-14 55 0 110 0 165 0 7 0 10-2 13-8 23-42 59-66 107-69 54-4 106 30 126 81 19 51 4 111-38 145-65 52-157 33-196-41-2-4-4-7-9-7-58 0-116 0-175 1-36 0-62 21-72 54-3 10-4 21-4 31 0 37 0 74 0 111 0 5 1 8 7 11 46 25 70 64 70 116-1 52-27 90-73 114-1 1-3 1-4 2-39 16-82 6-83 6-8-2-15-4-22-8-31-16-52-38-64-69-14-43-6-77 1-95 11-28 30-49 57-64 8-4 10-8 10-16 0-160 0-319 0-478 0-47 13-89 42-126 36-45 85-63 141-64 54 0 107 0 161 0 10 0 16-2 21-12 30-55 98-79 157-56 60 23 93 87 78 149z m-124 416c41-1 73-33 73-74 0-40-33-73-73-73-41 0-74 33-74 74 0 40 34 74 74 73z m-426 226c-40 0-73 33-73 73 0 41 33 74 73 74 41 0 74-33 74-73 0-41-33-75-74-74z m425-745c-40 0-73 33-73 73 0 41 34 74 74 74 41-1 73-34 73-75 0-40-33-72-74-72z" />
<glyph glyph-name="chart-flow-1" horiz-adv-x="1000" unicode="&#xe97a;" d="M978 96h-70c0 3 0 6 0 9 0 81 0 162 0 243 0 26-16 41-42 41-106 0-212 0-317 0-3 0-6 0-9 1v146h16c29 0 58 0 88 0 28 0 42 15 42 43 0 68 0 136 1 204 0 23-7 40-30 48h-310c-23-8-30-25-29-48 0-67 0-134 0-201 0-7 0-14 2-20 5-16 19-26 39-26 31 0 62 0 93 0h12v-147h-11l-315 0c-26 0-41-16-41-42 0-82 0-163 0-244 0-2 0-4-1-7h-74c-12 0-22-10-22-23v-182c0-12 10-22 22-22h249c13 0 23 10 23 22v182c0 13-10 23-23 23h-100v219h293v-221h-9c-21 0-41 0-62 0-23 0-38-15-38-38-1-48 0-96 0-144 0-20 11-32 29-39h236c23 8 30 25 30 48-1 44-1 87-1 131 0 28-14 42-42 42-22 0-44 0-67 0v221h293v-219h-104c-13 0-23-10-23-23v-182c0-12 10-22 23-22h249c12 0 22 10 22 22v182c0 13-10 23-22 23z" />
<glyph glyph-name="chart-bar-graph" horiz-adv-x="1000" unicode="&#xe979;" d="M615 1c0-14 3-18 16-17 38 1 75 0 113 0 0 210 0 420 0 631 0 9-2 11-11 11-39-1-79-1-118-1 0-3 0-7 0-10 0-205 0-410 0-614z m-159-9c0-6 3-8 13-8 34 0 67 0 100 0 12 0 16 1 16 9-1 26-1 53-1 79 0 69 0 138 1 206 0 9-4 11-18 11-32-1-64-1-96 0-12 0-16-2-15-10 0-47 0-95 0-143 0-48 0-96 0-144z m-147-8c33 1 67 1 100 0 12-1 16 4 15 18 0 71 0 142 0 213s0 142 0 213c1 13-3 17-13 16-34 0-68 0-102 0-10 0-14-4-13-16 0-143 0-285 0-428-1-12 3-16 13-16z m-160 0c33 0 67 0 100 0 12 0 15 2 15 10 0 40 0 79 0 119 0 39 0 79 0 119 0 7-3 9-13 9-34-1-68-1-102 0-11 0-14-2-14-9 1-80 1-160 0-239 0-7 3-9 14-9z m637 0c34 0 67 0 100 0 12 0 16 2 16 8-1 30-1 61-1 92 0 30 0 61 1 92 0 5-4 7-14 7-34-1-68-1-102 0-10 0-13-2-13-7 0-62 0-123 0-185 0-6 3-7 13-7z m203-21h-938v815c0 6-4 11-10 11h-30c-6 0-11-5-11-11v-856c0-6 5-11 11-11h978c6 0 11 5 11 11v30c0 6-5 11-11 11z" />
<glyph glyph-name="chart-arrows-axis" horiz-adv-x="1000" unicode="&#xe978;" d="M992-2c-38 30-76 59-114 89-3 2-6 5-10 3-5-2-5-6-5-11 0-15-1-31 0-46 0-9-3-11-12-11-63 0-126 0-189 0-171 0-342 0-512 0-11 0-13 3-13 13 0 81 0 163 0 245 0 130 0 260 0 390 0 7 2 9 9 8 16 0 32 0 48 0 5 0 9 0 11 5 3 4 0 7-3 11-30 38-60 77-90 115-6 9-12 9-18 1l-90-116c-3-3-5-6-3-11 2-4 6-5 11-5 14 0 28 0 43 0 14 0 14 0 14-14l0-162 0-508c0-27 13-41 39-41 123 0 247 0 370 0h37c112 0 225 0 338 0 7 0 10-1 10-9-1-15 0-31 0-46 0-5 0-10 5-13 5-3 8 1 12 4 37 29 75 59 112 88 11 9 11 12 0 21z m-165 368c-5-3-9-6-13-9-50-36-100-72-151-109-6-4-11-5-18-3-34 9-69 18-104 27-7 2-12 0-17-7-34-43-68-86-102-130-6-8-9-9-16-1-41 51-82 101-123 152-6 7-9 8-15 1-29-29-59-57-88-86-6-4-8-9-8-16 1-36 1-71 1-106 0-22 0-22 21-22 208 0 415 0 622 0 10 0 12 2 12 12-1 38 0 76 0 114-1 60-1 121-1 183z m-655 63c1-41 0-82 0-123v-39c6 2 8 5 11 8 28 28 56 55 83 84 8 8 12 7 18-1l123-148c6-7 8-6 14 1 29 37 59 74 87 112 7 8 13 10 23 7 38-9 76-17 114-26 7-1 12-1 18 4 52 39 105 78 158 116 5 4 7 8 7 15-1 42-1 84-1 126v41c-5-1-7-4-10-6-51-41-103-83-154-124-6-5-10-5-17-4-39 11-79 20-119 31-7 1-12 0-16-6-5-8-11-15-16-23-25-33-51-66-75-100-5-5-8-7-12 0-2 2-4 5-6 7-40 50-80 100-120 150-4 6-7 8-13 1-30-30-61-60-91-90-4-4-6-8-6-13z" />
<glyph glyph-name="chart-line" horiz-adv-x="1000" unicode="&#xe981;" d="M248 28c39 0 70 31 70 69 0 24-12 45-30 58l0 0c24 59 47 118 71 177 1 3 2 5 3 7 3-1 6-1 10-1 9 0 17 2 24 4 16-24 32-48 49-72-12-12-19-29-19-47 0-39 31-70 70-70s70 31 70 70c0 25-14 47-33 59l0 1c27 79 53 159 79 239 1 0 1 1 1 2 2 0 5 0 7 0 13 0 26 4 37 10 30-30 60-60 90-90-6-11-10-23-10-36 0-39 31-70 70-70s69 31 69 70c0 25-13 47-34 59 28 81 55 163 82 244 2 0 4-1 7-1 38 0 69 32 69 70s-31 70-69 70-70-31-70-70c0-25 13-46 32-59l0-2c-27-79-54-159-80-239 0-1-1-2-1-3-2 0-4 0-5 0-14 0-27-4-38-11-30 31-60 61-90 91 7 10 10 23 10 36 0 39-31 70-69 70s-70-31-70-70c0-25 13-47 33-59l0-2c-26-76-52-152-77-228-1-5-2-9-4-12-2 0-4 0-6 0-9 0-17-1-25-4-16 24-32 48-48 72 12 12 19 29 19 47 0 39-32 70-70 70s-70-31-70-70c0-23 12-44 30-57-25-61-49-122-74-184l0 0c-3 0-7 0-10 0-39 0-70-31-70-69 0-38 32-69 70-69z m197-116c-125 0-249 0-373 0-2 0-3 0-4 0v124h58v62h-58v124h58v62h-58v124h58v62h-58v123h58v63h-6c-1 0-3 0-4 0-16-1-31 0-47 0h-1v123h58v63h-119v-1h-7c0-327 0-655 0-982 0-5 4-9 9-9 325 0 649 0 974 0 1 0 2 0 4 0 4-1 5 1 5 5-1 19 0 38 0 57h-547z" />
<glyph glyph-name="chart-pie-alt" horiz-adv-x="1000" unicode="&#xe982;" d="M342 159c-3 2-5 5-8 7-68 62-97 139-81 230 19 104 100 182 204 200 9 1 10 5 10 12 0 81 0 161 0 242h-10c-17-3-33-5-50-8-199-43-329-162-390-357-2-6-3-11-5-17-5-20-24-114 0-227 28-125 97-225 203-300 5-4 8-4 11 2 40 68 79 137 118 205 3 5 4 8-2 11z m607 409c-3 6-5 7-11 4-68-40-135-81-203-121-6-3-7-5-4-11 2-3 3-6 4-10 28-87 16-169-43-240-67-82-176-110-275-74-9 3-11 0-15-6-39-70-79-140-118-210l8-5c16-6 31-13 47-18 195-60 367-20 515 120 5 4 9 8 13 12 14 16 77 88 112 198 36 123 25 243-30 361z m-413 28c62-10 113-39 154-88 4-5 7-6 13-2 67 39 135 78 203 117 7 4 6 7 2 13-20 28-43 55-68 79-72 66-155 109-251 127-17 3-34 5-50 8h-10v-244c0-5-1-9 7-10z" />
<glyph glyph-name="chart-pie" horiz-adv-x="1000" unicode="&#xe983;" d="M437 308c-2 3-2 7-2 11l77 405c1 9-5 17-14 19-21 3-42 4-64 4-246 0-445-205-433-454 10-226 196-408 422-414 64-2 126 11 181 34 21 9 29 34 18 53l-185 342z m534 162c-6 16-25 23-41 16l-336-159c-15-8-21-27-13-42l177-327c8-15 28-20 43-10 120 77 199 212 199 365 0 55-10 108-29 157z m-410-52l330 157c12 6 17 20 10 32-57 105-158 184-277 213-13 4-26-5-28-18l-68-359c-3-18 16-33 33-25z" />
<glyph glyph-name="chart-radar-graph" horiz-adv-x="1000" unicode="&#xe984;" d="M503 850c-276 2-502-219-503-499-1-275 220-499 500-501 275 1 497 221 500 495 3 277-219 503-497 505z m2-966c-261-2-470 204-472 465-1 257 206 466 465 468 258 2 467-207 469-467 1-254-208-465-462-466z m128 337c-6-2-9-2-13 3-12 17-25 34-38 51-3 5-4 9-1 15 10 25 9 51-6 75-33 53-109 51-141-3-2-4-4-9-11-7-18 3-37 7-55 10-6 1-8 2-7 8 0 9-1 19-5 28-3 7-1 9 5 13 53 29 106 59 159 89 7 4 12 4 18-2 25-26 65-31 97-14 31 18 48 55 40 89-11 48-58 76-105 61-46-15-69-65-50-110 3-9 1-11-6-15-52-29-105-58-157-88-7-4-11-3-16 3-28 34-78 39-112 12-35-27-43-76-18-111 20-28 47-39 80-35 31 5 53 23 64 52 3 7 5 10 13 8 16-4 33-7 49-9 8-1 9-4 8-11-6-40 17-78 56-90 35-10 65 0 90 28 13-17 25-33 37-49 6-7 6-10-2-16-35-26-46-73-28-113 17-38 59-62 99-55 56 10 91 62 78 116-13 54-68 84-122 67z m-127 53c-27 0-48 20-48 46 0 27 20 48 47 48 26 1 47-20 48-46 1-26-21-48-47-48z" />
<glyph glyph-name="recycle-alt" horiz-adv-x="1000" unicode="&#xe9ae;" d="M266 554c20-12 40-24 60-36 5-3 6-1 9 3 14 25 28 49 42 74 13 23 25 47 43 67 21 23 45 39 76 41 35 1 61-16 84-40 21-23 33-52 49-78 3-4 0-5-3-7-11-8-23-14-33-23-16-14-14-31 4-42 2-1 5-3 8-4 39-15 77-30 116-45 28-11 52 5 52 35 1 41 1 83 0 124 0 25-19 36-41 24-9-5-17-10-25-16-5-4-7-4-11 2-14 26-28 50-47 73-28 34-62 62-106 76-2 1-5 1-8 2-35 8-72-1-72-1-24-6-46-17-66-33-26-19-47-43-65-70-24-38-46-78-69-117-2-5 0-7 3-9z m670-385c-3 29-11 56-23 82-20 43-46 83-69 124-2 4-4 4-7 2-20-12-40-25-61-36-5-3-4-6-1-10 18-31 36-63 54-95 11-19 20-39 24-61 10-49-12-93-59-112-26-11-55-13-83-13-19 0-19 0-20 18 0 3 0 6 0 9-5 24-21 33-44 25-9-3-17-9-25-14-24-15-49-30-73-45-13-9-23-20-21-37 1-16 12-25 24-33 20-12 40-25 60-37 13-8 25-18 40-22 17-4 30 3 36 19 3 6 4 12 4 18 0 17 0 17 17 17 43-1 86 5 126 23 47 22 82 55 96 107 3 9 5 19 7 29v39c-1 1-2 2-2 3z m-244 122c2 110-87 198-192 196-106 0-191-85-191-191 0-108 86-193 196-191 103 2 184 85 187 186z m-124 145c20-10 36-23 51-39 5-6 4-9-2-13-12-6-24-13-37-17-3-1-5-2-7 2-7 28-18 53-36 77 12-1 22-6 31-10z m-122-154c-2 14 0 28 1 42 0 4 2 4 5 4 32-6 64-6 96 0 3 1 5 0 5-4 0-10 2-19 2-29-1-8-2-16-2-24 0-6-2-7-7-6-26 5-53 5-79 2-1 0-2 0-3 0-5 0-12-5-16-1-3 3-1 10-2 16z m58 163c19-24 33-52 42-82 1-4 0-5-4-6-14-3-28-3-42-4-14 1-27 1-41 4-4 1-5 1-4 6 8 30 22 57 42 82 2 3 4 4 7 0z m-125-52c21 26 49 45 82 53 0 0 1 0 2 0-6-9-12-17-17-26-8-15-14-32-18-48-1-5-3-7-8-5-14 6-28 11-40 19-3 2-4 4-1 7z m-16-169c-23 46-24 91-4 137 2 6 4 8 10 3 13-12 28-20 44-25 6-2 8-4 7-11-3-20-3-42 0-62 1-7-1-10-7-12-19-7-35-17-50-30z m26-37c0 1-1 2-2 3-12 14-12 13 4 22 10 6 19 10 30 14 2 0 5 2 6-3 7-28 19-54 38-78-31 8-55 22-76 42z m115-39c-3-5-5-4-8 0-19 24-32 51-41 81-2 5 0 6 4 7 14 1 27 4 44 3 11 0 24-1 37-3 4-1 7-2 5-8-9-29-22-56-41-80z m118 52c-22-28-50-46-87-55 20 24 31 50 38 77 1 4 2 5 6 4 15-6 28-12 42-20 2-2 3-3 1-6z m-36 54c-5 2-6 5-6 9 3 22 3 44 0 67 0 5 2 7 7 9 16 6 32 14 45 25 5 4 6 4 9-1 9-21 14-43 15-64-1-26-6-48-16-69-2-4-3-6-7-2-14 12-30 20-47 26z m-168-211c0 6-1 7-7 7-24 0-48 0-72 0-15 0-31 0-47 0-24 0-49 1-73 8-56 17-83 63-71 120 6 30 21 55 36 81 3 4 5 2 7 0 8-4 15-10 23-13 22-11 40 0 40 24 0 42 0 84 0 126 0 25-18 40-42 36-5 0-9-2-14-4-18-7-36-14-54-22-21-8-41-16-61-24-25-12-27-32-5-49 6-4 12-8 18-12 7-4 17-8 19-14 2-7-6-14-11-22-24-45-43-92-41-145 1-53 23-96 65-127 43-31 91-43 142-45 47-1 94 0 140 0 7 0 8 2 8 8 0 22 0 45 0 67z" />
<glyph glyph-name="under-construction" horiz-adv-x="1000" unicode="&#xe9ba;" d="M731 83c-22 38-44 76-66 114-14 24-20 25-43 10-7-5-15-9-17-17-6-15-16-14-27-10-4 2-9 2-12 4-13 7-24 5-35-7 18-6 35-11 53-16 13-3 7-13 10-21 2-8-5-6-8-8-15-7-29-16-34-32-6-21-13-42-29-57-2-2-2-5-3-7-5-10-3-15 10-15 57 1 113 1 170 1 11 0 23 1 33 6 10 4 14 11 12 22-3 12-8 23-14 33z m-144-34c-11 1-17 7-17 18 0 10 7 16 16 16 11 0 18-7 18-17 0-10-7-17-17-17z m43 93c-10 0-16 6-16 16-1 10 5 18 16 18 10 0 16-6 18-16-1-12-7-18-18-18z m63-55c0-10-6-17-18-17-10 1-16 7-16 18 0 11 8 16 18 16 10-1 17-7 16-17z m-397 167c17 15 35 29 52 44 4 3 7 4 13 3 7-3 15-3 25-5-6-10-11-19-16-27-4-7-5-10 5-13 19-5 38-11 57-17 7-2 11-2 14 5 10 16 20 31 34 44 2 3 4 5 2 8-6 13-12 27-20 40-3 6-10 10-18 10-32 0-65 0-97 0-10 0-18-2-24-11-14-22-29-45-43-67-5-7-2-10 3-14 5-5 8-4 13 0z m167-83c-34 27-76 33-115 46-7 2-9-1-11-6-5-13 2-28 16-36 24-12 48-24 72-36 7-3 10-7 10-15 3-34 8-67 11-100 1-11 6-11 14-11 8 0 12 0 13 10 2 37 5 74 8 105 1 29 0 28-18 43z m36 163c29 0 53 25 53 53 0 28-24 53-52 53-29 0-52-23-53-52 0-30 22-53 52-54z m-110-193c-14 7-28 14-45 23 8-31-11-49-23-70-11-18-22-36-34-53-4-7-4-11 3-15 7-4 11-9 19-1 23 26 46 51 70 76 8 9 12 19 14 31 0 4 0 7-4 9z m-82 103c58-18 115-35 174-52-8 17-19 25-35 29-37 10-74 21-111 33-13 4-20-1-28-10z m221-48c-2 3-3 6-4 9-7 14-13 29-20 44-5 9-7 25-15 25-9 1-14-15-21-23-5-6-5-11 0-17 12-15 24-31 36-46 2-3 4-8 9-4 5 4 12 5 15 12z m399-147l-359 674c-14 26-37 40-67 40s-53-14-67-40l-361-674c-14-25-14-51 1-76 15-24 38-36 66-36h720c28 0 51 12 66 36 15 25 15 51 1 76z m-43-50c-6-9-13-13-24-13h-720c-11 0-18 4-24 13-5 10-5 17 0 26l0 1 361 673 0 1c6 10 13 14 24 14s18-4 23-15l360-673 0-1c5-9 5-16 0-26z" />
<glyph glyph-name="under-construction-alt" horiz-adv-x="1000" unicode="&#xe9b9;" d="M937-60c-2 6-5 10-9 15-11 13-23 25-42 27-6 0-15-2-19 6-6 9-14 15-24 18-6 1-7 4-6 9 2 11-1 20-6 29-10 22-28 39-58 30-4-1-7 2-8 5-7 13-17 24-28 34-21 20-46 23-73 16-20-5-35-18-47-34-3-5-6-5-11-1-15 13-31 26-47 39-54 43-108 87-162 130-3 3-4 4-1 9 23 42 46 84 69 127 9 16 18 33 27 49 10 16 10 31 2 46-24 42-55 81-82 121-9 13-20 19-37 19-58-1-116-1-174 0-26 0-36-12-43-32-9-24-12-49-18-74-4-17-8-33-12-51-6 5-11 9-15 13-5 5-11 8-18 10-5 1-8-2-11-4-2-3-6-6-4-11 3-6 6-12 12-16 9-5 17-12 25-18 3-3 8-5 8-9 0-15 9-22 21-27-10-10-20-20-29-29-5-4-9-9-9-15 0-10-2-20-2-30 1-56 0-112 0-167 0-3 0-6 0-9-14-54-28-109-41-163-4-16-4-32 5-47 11-22 43-25 61-11 12 9 18 22 22 36 14 53 27 106 40 160 4 12 9 25 9 37-1 41 0 81 1 123l10-12c29-36 58-72 86-108 3-3 5-5 3-10-28-56-54-112-81-168-8-17-11-33-1-50 11-18 35-23 52-16 14 6 22 19 30 31 13 20 23 43 35 65 22 41 42 84 64 125 9 16 8 38-1 49-8 8-15 17-23 25-2 3-2 4-1 7 3 3 5 0 6-1 6-4 11-9 17-13 59-48 119-95 178-142 5-4 6-6-1-9-15-6-28-16-36-31-5-10-10-19-24-16 0 0-2-2-3-2-16-7-25-19-27-36-1-4-3-6-7-7-5 0-11-1-17-1-24-2-43-15-57-33-3-3-6-7-5-11 2-4 7-2 11-2 172 0 344 0 516 0 2 0 4 1 6 0 5 0 5 2 4 6z m-732 535c5 22 10 45 15 68 0 3 2 5 5 5 17-2 34 1 50-3l-70-70z m124-150c-2-4-5-4-8-1-13 10-25 20-38 30-5 4-3 6 1 7 24 10 47 20 70 30 5 2 9 6 16 5-14-24-27-47-41-71z m211 273c42 0 83 30 85 84-1 46-35 84-84 84-50 1-83-36-84-83-1-46 34-84 83-85z" />
<glyph glyph-name="riyal" horiz-adv-x="1000" unicode="&#xea0a;" d="M804 416c-5 45-35 61-73 61-30 0-61-13-91-30l2-117c0-87 16-121 46-144 14-11 35-17 58-17 25 0 44 7 57 18-4 32-20 71-41 112 13 22 27 44 44 66h4c23-52 37-99 37-131 0-32-9-64-27-96-21-37-53-57-95-57-70 0-121 57-121 179 0 50-3 103-5 158l-2 2c-27-23-52-48-74-73 1-39 2-80 2-123 0-59-8-115-24-168-44-69-117-113-191-113-99 0-157 77-157 185 0 51 15 109 50 172l18-10c-21-46-29-85-29-118 0-72 47-133 118-133 53 0 92 20 128 49 29 24 45 44 49 62 0 52-2 102-6 151l-2 1c-6-6-11-13-20-24-51-59-84-89-130-89-49 0-90 50-90 121 0 74 29 149 82 224l18-12c-41-63-63-116-63-159 0-26 5-45 13-57 13-23 34-28 48-28 39 0 85 40 138 99-6 87-11 166-17 223-7 28-16 55-16 73 0 24 27 72 51 99l8-5c-2-9-2-17-2-25 0-33 20-74 54-119l-44-43 8-160h2c26 26 51 50 76 71-3 60-9 137-17 236 13 21 26 41 40 60l6-1c12-71 15-162 15-262h2c40 27 77 43 112 43 42 0 76-22 76-69 0-25-6-55-16-85l-9 3z m-148-384c27-16 53-35 77-59-12-22-27-42-45-61-25 23-51 42-77 59l45 61z m117 11c27-17 52-37 74-61-11-24-26-43-41-61-24 23-49 42-75 61l42 61z" />
<glyph glyph-name="riyal-true" horiz-adv-x="1000" unicode="&#xea09;" d="M319 189c0 36-14 68-37 91-23 23-53 37-86 38h-5c-36 0-68-14-91-38-23-23-37-55-37-90 0-19 3-36 10-51 6-15 16-29 27-40 23-24 55-38 91-38 71 0 128 58 128 128z m-61 30l-79-78c-2-2-5-2-7 0l-48 48c-2 2-2 5 0 7l11 12c2 2 6 2 8 0l33-33 63 63c2 2 5 2 7 0l12-11c2-2 2-6 0-8z m604-172l-43-61c26-18 52-37 76-59 16 18 31 36 43 60-24 23-49 43-76 60z m-165-72c26-16 53-35 79-57 17 18 33 38 45 60-24 23-50 43-79 58l-45-61z m116 109c43 0 75 20 96 56 19 32 28 64 28 96 0 31-14 77-38 129h-4c-17-22-31-44-44-65 21-41 37-79 41-111-13-11-32-18-58-18-23 0-44 6-59 17-30 23-47 56-47 142l-1 116c30 17 61 29 92 29 39 0 70-16 75-59l9-3c10 29 16 59 16 84 0 46-34 68-77 68-35 0-74-16-114-43h-2c0 99-4 188-15 259l-6 1c-15-19-28-38-41-60 8-98 14-173 17-232-26-21-51-45-77-71h-3l-8 158 45 43c-34 44-54 85-54 117 0 9 0 16 1 25l-8 4c-24-26-52-73-52-97 0-18 10-45 16-72 6-56 12-135 18-220-54-59-100-98-141-98-14 0-35 5-48 28-8 12-13 31-13 56 0 42 22 94 63 157l-17 12c-55-75-84-149-84-222 0-8 0-15 1-23 5-33 19-60 39-77 15-12 33-19 51-19 47 0 81 29 133 88 9 10 14 17 20 24l2-2c4-48 6-97 6-149-4-18-20-38-50-62-36-28-76-48-130-48-35 0-64 14-84 37-12-19-37-37-62-36 23-62 73-95 146-95 75 0 149 43 194 111 16 52 25 108 25 166 0 43-1 83-3 121 23 25 48 50 76 73l2-2c2-55 5-107 5-156 0-120 52-177 123-177z" />
<glyph glyph-name="riyal-plus" horiz-adv-x="1000" unicode="&#xea08;" d="M320 188c0 35-15 67-38 90-22 23-53 37-86 38h-5c-36 0-67-14-91-38-23-23-37-55-37-90 0-19 3-36 10-51 7-15 16-29 27-40 24-23 55-38 91-38 71 0 129 58 129 129z m-68-19h-42v-42h-38v42h-42v38h42v41h38v-41h42v-38z m561-85c43 0 75 20 96 56 19 32 28 64 28 95 0 31-14 78-38 130h-4c-17-22-31-44-44-66 21-41 37-79 41-110-13-12-32-18-58-18-23 0-44 6-59 16-30 23-47 57-47 143l-1 115c30 18 61 30 92 30 39 0 70-16 75-60l9-2c10 29 16 58 16 83 0 46-34 69-78 69-34 0-73-16-113-44h-2c0 100-4 189-15 259l-6 2c-15-19-29-38-42-60 9-98 15-173 18-233-26-20-51-44-77-70h-3l-8 158 45 43c-34 44-55 85-55 117 0 9 0 16 2 25l-8 4c-24-26-52-73-52-97 0-18 10-45 16-72 6-57 12-135 17-220-53-59-99-98-140-98-14 0-35 4-49 27-7 12-12 31-12 57 0 42 22 94 63 157l-18 12c-54-75-84-149-84-222 0-8 1-16 2-23 5-33 19-60 39-77 15-13 32-19 51-19 47 0 81 29 133 88 9 10 14 17 20 24l2-2c4-48 6-98 6-149-4-18-20-38-50-62-36-28-76-48-130-48-35 0-64 14-84 36-12-18-38-37-62-36 22-62 73-95 146-95 75 0 149 44 194 111 16 53 25 109 25 167 0 43-1 83-3 121 23 25 48 50 75 73l3-2c2-55 5-107 5-156 0-120 52-177 123-177z m49-38l-43-60c26-18 52-38 76-60 16 18 31 36 43 60-24 23-49 43-76 60z m-120-10l-45-61c26-17 53-35 78-58 18 18 34 39 46 61-24 23-50 42-79 58z" />
<glyph glyph-name="riyal-minus" horiz-adv-x="1000" unicode="&#xea07;" d="M319 188c0 35-14 68-37 91-23 22-53 36-86 37h-5c-36 0-68-14-91-37-23-24-37-56-37-91 0-18 3-36 10-51 7-15 16-29 27-40 23-23 55-38 91-38 71 1 128 58 128 129z m-69-17h-118v34h118v-34z m563-87c43 0 75 20 96 56 19 32 28 64 28 96 0 31-14 77-38 129h-4c-17-22-31-44-44-65 21-41 37-79 41-111-13-11-32-18-58-18-23 0-44 6-59 17-30 23-46 56-46 142l-2 116c30 17 61 29 93 29 38 0 69-16 74-59l9-3c10 29 16 59 16 84 0 46-34 68-77 68-35 0-74-16-113-43h-3c0 99-4 188-15 259l-6 1c-15-19-28-38-41-60 8-98 14-173 17-232-26-21-51-45-77-71h-3l-8 158 45 43c-34 44-55 85-55 117 0 9 0 16 2 25l-8 4c-24-26-52-73-52-97 0-18 10-45 16-72 6-56 12-135 17-220-53-59-99-98-140-98-14 0-35 5-49 28-7 12-12 31-12 56 0 42 22 94 63 157l-17 12c-55-75-84-149-84-222 0-8 0-15 1-23 5-33 19-60 39-77 15-12 32-19 51-19 47 0 81 29 133 88 9 10 14 17 20 24l2-2c4-48 6-97 6-149-4-18-20-38-50-62-36-28-76-48-130-48-35 0-64 14-84 37-12-19-38-37-62-36 22-62 73-95 146-95 75 0 149 43 194 111 16 52 25 108 25 166 0 43-1 83-3 121 23 25 48 50 75 73l3-2c2-55 5-107 5-156 0-120 52-177 123-177z m49-37l-43-61c26-18 52-37 76-59 16 18 31 36 42 60-23 23-48 43-75 60z m-120-11l-45-61c26-16 53-35 79-57 17 18 33 38 45 60-24 23-50 43-79 58z" />
<glyph glyph-name="riyal-false" horiz-adv-x="1000" unicode="&#xea06;" d="M319 190c0 35-14 67-37 90-23 23-53 37-86 38h-5c-36 0-68-14-91-38-23-23-37-55-37-90 0-19 3-36 10-51 7-15 16-29 27-40 23-24 55-38 91-38 71 0 128 58 128 129z m-75-32l-21-21-32 31-32-31-21 21 31 32-31 31 21 22 32-32 32 32 21-22-32-31 32-32z m618-111l-43-61c26-18 52-37 76-59 16 18 31 36 42 60-23 23-48 43-75 60z m-49 37c43 0 75 20 96 56 19 32 28 64 28 96 0 31-14 77-38 129h-4c-17-22-31-44-44-65 21-41 37-79 41-111-13-11-32-18-58-18-23 0-44 6-59 17-30 23-46 56-46 142l-2 116c30 17 61 29 93 29 38 0 69-16 74-59l9-3c10 29 16 59 16 84 0 46-34 68-77 68-35 0-74-16-113-43h-3c0 99-4 188-15 259l-6 1c-15-19-28-38-41-60 8-98 14-173 17-232-26-21-51-45-77-71h-3l-8 158 45 43c-34 44-55 85-55 117 0 9 0 16 2 25l-8 4c-24-26-52-73-52-97 0-18 10-45 16-72 6-56 12-135 17-220-53-59-99-98-140-98-14 0-35 5-49 28-7 12-12 31-12 56 0 42 22 94 63 157l-17 12c-55-75-84-149-84-222 0-8 0-15 1-23 5-33 19-60 39-77 15-12 32-19 51-19 47 0 81 29 133 88 9 10 14 17 20 24l2-2c4-48 6-97 6-149-4-18-20-38-50-62-36-28-76-48-130-48-35 0-64 14-84 37-12-19-38-37-62-36 22-62 73-95 146-95 75 0 149 43 194 111 16 52 25 108 25 166 0 43-1 83-3 121 23 25 48 50 75 73l3-2c2-55 5-107 5-156 0-120 52-177 123-177z m-71-48l-45-61c26-16 53-35 79-57 17 18 33 38 45 60-24 23-50 43-79 58z" />
<glyph glyph-name="arrow-down" horiz-adv-x="1000" unicode="&#xea5b;" d="M772 358l-53 54c-9 8-24 8-32 0l-137-137v352c0 13-10 23-23 23h-90c-13 0-23-10-23-23v-343l-127 128c-9 8-23 8-32 0l-54-54c-8-9-8-23 0-32l270-269c9-9 23-9 32 0l269 269c9 9 9 23 0 32z" />
<glyph glyph-name="arrow-left" horiz-adv-x="1000" unicode="&#xea5c;" d="M777 422h-343l128 128c8 9 8 23 0 32l-54 53c-9 9-23 9-32 0l-269-269c-9-9-9-23 0-32l269-269c9-9 23-9 32 0l54 53c8 9 8 23 0 32l-137 137h352c13 0 23 10 23 23v90c0 12-10 22-23 22z" />
<glyph glyph-name="arrow-right" horiz-adv-x="1000" unicode="&#xea5d;" d="M223 422h343l-128 128c-8 9-8 23 0 32l54 53c9 9 23 9 32 0l269-269c9-9 9-23 0-32l-269-269c-9-9-23-9-32 0l-54 53c-8 9-8 23 0 32l137 137h-352c-13 0-23 10-23 23v90c0 12 10 22 23 22z" />
<glyph glyph-name="arrow-up" horiz-adv-x="1000" unicode="&#xea5e;" d="M427 73v343l-127-128c-9-8-23-8-32 0l-54 54c-8 9-8 23 0 32l270 269c9 9 23 9 32 0l269-269c9-9 9-23 0-32l-53-54c-9-8-23-8-32 0l-137 137v-352c0-13-10-23-23-23h-90c-13 0-23 10-23 23z" />
<glyph glyph-name="block-down" horiz-adv-x="1000" unicode="&#xea5f;" d="M937-88v876h-875v-876h875z m-117 590l-320-329-320 329 26 25 294-303 294 303 26-25z" />
<glyph glyph-name="block-left" horiz-adv-x="1000" unicode="&#xea60;" d="M62-86h875v876h-875v-876z m615 732l-303-294 303-294-25-26-329 320 329 320 25-26z" />
<glyph glyph-name="block-right" horiz-adv-x="1000" unicode="&#xea61;" d="M938 788h-876v-876h875v876z m-615-732l303 294-303 294 25 26 329-320-329-320-25 26z" />
<glyph glyph-name="block-up" horiz-adv-x="1000" unicode="&#xea62;" d="M62 788v-876h875v876h-875z m732-615l-294 303-294-303-26 25 320 329 320-329-26-25z" />
<glyph glyph-name="bubble-down" horiz-adv-x="1000" unicode="&#xea63;" d="M511 175c-6-6-16-6-22 0l-130 130c-6 6-16 6-23 0l-37-38c-7-6-7-16 0-22l190-190c6-6 16-6 22 0l190 190c6 6 6 16 0 22l-38 38c-6 6-16 6-22 0l-130-130z m72 154c0-46-37-83-83-83s-83 37-83 83 37 83 83 83 83-37 83-83z m-23 159c0-33-27-60-60-60s-60 27-60 60c0 33 27 60 60 60 33 0 60-27 60-60z m-17 119c0-24-19-44-43-44s-44 20-44 44 20 43 44 43 43-19 43-43z" />
<glyph glyph-name="bubble-left" horiz-adv-x="1000" unicode="&#xea64;" d="M325 339c-6 6-6 16 0 22l130 130c6 6 6 16 0 23l-38 37c-6 7-16 7-22 0l-190-190c-6-6-6-16 0-22l190-190c6-6 16-6 22 0l38 38c6 6 6 16 0 22l-130 130z m237 11c0-46-37-83-83-83s-83 37-83 83 37 83 83 83 83-37 83-83z m136 0c0-33-27-60-60-60s-60 27-60 60c0 33 27 60 60 60s60-27 60-60z m102 0c0-24-19-43-43-43s-44 19-44 43 20 43 44 43 43-19 43-43z" />
<glyph glyph-name="bubble-right" horiz-adv-x="1000" unicode="&#xea65;" d="M675 339c6 6 6 16 0 23l-130 129c-6 6-6 17 0 23l38 38c6 6 16 6 22 0l190-190c7-7 7-17 0-23l-190-190c-6-6-16-6-22 0l-38 38c-6 6-6 16 0 22l130 130z m-70 11c0-46-38-83-84-83s-83 37-83 83c0 46 38 83 83 83s84-37 84-83z m-183 0c0-33-27-60-60-60s-60 27-60 60 27 60 60 60 60-26 60-60z m-135 0c0-24-20-43-44-43s-43 19-43 43 19 44 43 44 44-20 44-44z" />
<glyph glyph-name="bubble-up" horiz-adv-x="1000" unicode="&#xea66;" d="M511 525c-6 6-16 6-22 0l-130-130c-6-6-16-6-23 0l-37 38c-7 6-7 16 0 22l190 190c6 7 16 7 22 0l190-190c6-6 6-16 0-22l-38-38c-6-6-16-6-22 0l-130 130z m72-154c0-45-37-83-83-83s-83 38-83 83 37 84 83 84 83-38 83-84z m-23-159c0-33-27-60-60-60s-60 27-60 60c0 33 27 60 60 60 33 0 60-27 60-60z m-17-119c0-24-19-43-43-43s-44 19-44 43 20 44 44 44 43-20 43-44z" />
<glyph glyph-name="caret-down" horiz-adv-x="1000" unicode="&#xea67;" d="M534 213l255 254c19 19 13 35-14 35h-550c-27 0-33-16-14-35l255-254c19-19 49-19 68 0z" />
<glyph glyph-name="caret-left" horiz-adv-x="1000" unicode="&#xea68;" d="M362 384l255 255c19 19 34 13 34-14v-550c0-27-15-33-34-14l-255 255c-19 19-19 49 0 68z" />
<glyph glyph-name="caret-right" horiz-adv-x="1000" unicode="&#xea69;" d="M637 384l-255 255c-18 19-34 13-34-14v-550c0-27 16-33 34-14l255 255c19 19 19 49 0 68z" />
<glyph glyph-name="caret-up" horiz-adv-x="1000" unicode="&#xea6a;" d="M534 487l255-255c19-18 13-34-14-34h-550c-27 0-33 15-14 34l255 255c19 19 49 19 68 0z" />
<glyph glyph-name="circled-down" horiz-adv-x="1000" unicode="&#xea6b;" d="M63 350c0-241 196-438 437-438s438 197 438 438-196 438-438 438-437-196-437-438z m460-40l202 202c9 9 25 9 35 0l59-59c9-10 9-26 0-35l-296-296c-10-10-26-10-35 0l-296 296c-10 9-10 25 0 35l59 59c9 9 25 9 35 0l202-202c9-10 25-10 35 0z" />
<glyph glyph-name="circled-left" horiz-adv-x="1000" unicode="&#xea6c;" d="M500 788c-241 0-437-196-437-438s196-438 437-438 438 197 438 438-196 438-438 438z m-40-461l202-202c9-9 9-25 0-35l-59-59c-10-9-26-9-35 0l-296 296c-10 10-10 26 0 35l296 296c9 10 25 10 35 0l59-58c9-10 9-26 0-36l-202-202c-10-9-10-25 0-35z" />
<glyph glyph-name="circled-right" horiz-adv-x="1000" unicode="&#xea6d;" d="M63 350c0-241 196-438 437-438s438 197 438 438-196 438-438 438-437-196-437-438z m477 12l-202 202c-9 10-9 26 0 36l59 58c10 10 26 10 35 0l296-296c10-9 10-25 0-35l-296-296c-9-9-25-9-35 0l-59 59c-9 10-9 26 0 35l202 202c10 10 10 26 0 35z" />
<glyph glyph-name="circled-up" horiz-adv-x="1000" unicode="&#xea6e;" d="M500-88c242 0 438 197 438 438s-196 438-438 438-437-196-437-438 196-438 437-438z m-12 478l-202-202c-10-9-26-9-35 0l-59 59c-10 10-10 26 0 35l296 296c9 10 25 10 35 0l296-296c9-9 9-25 0-35l-59-59c-10-9-26-9-35 0l-202 202c-10 10-26 10-35 0z" />
<glyph glyph-name="collapse" horiz-adv-x="1000" unicode="&#xea6f;" d="M702 593l-57 57-145-144-144 144-58-57 202-202z m-404-486l58-57 144 145 145-145 57 57-202 202z" />
<glyph glyph-name="cursor-drag" horiz-adv-x="1000" unicode="&#xea70;" d="M532 364c9 4 17 9 23 16 14 13 22 30 23 49h248l-125-122 10-10 142 138-142 138-10-11 125-122h-248c-1 19-9 37-22 50s-31 21-50 22v249l122-126 10 11-138 142-138-142 11-11 121 126v-249c-37-4-67-34-70-71h-250l125 121-10 11-142-138 142-138 10 10-125 122h250c3-35 28-64 62-70l-13-336 92 81 92-191 62 29-87 186 123-5-223 241z m-95 71c0 16 6 32 17 44 11 11 26 19 42 20h10c34-3 60-30 60-64 0-28-18-52-43-61l-35 37-1-39c-29 6-50 32-50 63z" />
<glyph glyph-name="curved-double-left" horiz-adv-x="1000" unicode="&#xea71;" d="M494 554c5 10 5 27 0 37l-27 52c-6 10-14 10-20 0l-144-275c-6-10-6-26 0-36l144-274c6-10 14-10 19 0l28 51c5 10 5 27 0 37l-98 186c-6 10-6 26 0 36l98 186z m105-222c-5 10-5 26 0 36l99 186c5 10 5 27 0 37l-28 52c-5 10-14 10-19 0l-145-275c-5-10-5-26 0-36l145-274c5-10 14-10 19 0l28 51c5 10 5 27 0 37l-99 186z" />
<glyph glyph-name="curved-double-right" horiz-adv-x="1000" unicode="&#xea72;" d="M506 554c-5 10-5 27 0 37l28 52c5 10 14 10 19 0l145-275c5-10 5-26 0-36l-145-274c-5-10-14-10-19 0l-28 51c-5 10-5 27 0 37l99 186c5 10 5 26 0 36l-99 186z m-105-222c5 10 5 26 0 36l-98 186c-6 10-6 27 0 37l27 52c5 10 14 10 19 0l145-275c5-10 5-26 0-36l-145-274c-5-10-14-10-19 0l-27 51c-6 10-6 27 0 37l98 186z" />
<glyph glyph-name="curved-down" horiz-adv-x="1000" unicode="&#xea73;" d="M793 418l-52 28c-10 5-27 5-37 0l-186-99c-10-5-26-5-36 0l-186 99c-10 5-27 5-37 0l-51-28c-10-5-10-14 0-19l274-145c10-5 26-5 36 0l275 145c10 5 10 14 0 19z" />
<glyph glyph-name="curved-left" horiz-adv-x="1000" unicode="&#xea74;" d="M549 642l-145-274c-5-10-5-26 0-36l145-274c5-10 14-10 19 0l28 51c5 11 5 27 0 37l-99 186c-5 10-5 26 0 36l99 186c5 10 5 27 0 37l-28 52c-5 10-14 10-19-1z" />
<glyph glyph-name="curved-right" horiz-adv-x="1000" unicode="&#xea75;" d="M432 642l-28-51c-5-10-5-27 0-37l99-186c5-10 5-26 0-36l-99-186c-5-10-5-27 0-37l28-51c5-11 14-11 19 0l145 274c5 10 5 26 0 36l-145 274c-5 11-14 11-19 0z" />
<glyph glyph-name="expand-alt" horiz-adv-x="1000" unicode="&#xea7d;" d="M500 165l-144 144-58-57 202-202 202 202-57 57-145-144z m0 371l145-145 57 57-202 202-202-202 57-57 145 145z" />
<glyph glyph-name="double-right" horiz-adv-x="1000" unicode="&#xea7c;" d="M572 578l-65-65 164-163-164-163 65-65 228 228-228 228z m-372-65l163-163-163-163 65-65 228 228-228 228-65-65z" />
<glyph glyph-name="double-left" horiz-adv-x="1000" unicode="&#xea7b;" d="M428 578l65-65-164-163 164-163-65-65-228 228 228 228z m372-65l-163-163 163-163-65-65-228 228 228 228 65-65z" />
<glyph glyph-name="curved-up" horiz-adv-x="1000" unicode="&#xea76;" d="M784 301l-274 145c-10 5-27 5-37 0l-274-145c-10-5-10-14 0-19l52-28c10-5 26-5 36 0l186 99c10 5 26 5 37 0l186-99c10-5 26-5 36 0l52 28c10 5 10 14 0 19z" />
<glyph glyph-name="hand-down" horiz-adv-x="1000" unicode="&#xea7e;" d="M775 552c-7 9-9 23-12 36-6 21-11 42-16 64-3 12-8 18-22 18-86-1-173-1-260 0-12 0-18-4-21-16-10-40-21-79-33-117-3-10-9-21-17-28-58-51-117-101-175-151-17-15-27-32-21-55 5-23 18-37 40-44 19-6 36 0 51 13 27 22 53 45 79 67 3 2 6 4 9 5 5 2 11-1 12-6 2-3 2-6 2-10 0-104 0-208 0-312v-41c0-38 20-62 52-62 30-1 53 24 53 61 0 14 0 28 0 42v194c0 4 1 8 1 11 1 7 3 12 5 12 2 1 5-3 6-8 1-3 1-6 1-9 1-37 0-74 1-110 0-29 17-50 43-51 25-1 45 16 47 44 2 41 1 81 2 122 0 4 0 7 0 11 1 3 1 5 2 7 1 4 5 5 7 3 1-2 2-4 2-5 1-4 2-6 2-10 0-31 0-62 0-93 0-27 15-44 40-45 24-1 46 19 46 45 1 43 0 87 1 130 0 3 0 6 1 9 1 5 4 10 6 10 2 0 4-5 5-10 0-3 1-6 1-9 0-31 0-61 0-92 0-24 13-39 36-43 20-3 42 9 48 29 3 10 4 20 4 30 1 92 1 184 1 276-1 32-7 62-29 88z m-305 143h256c15 0 27 12 27 28v37c0 15-12 27-27 27h-256c-15 0-27-12-27-27v-37c0-16 12-28 27-28z" />
<glyph glyph-name="hand-left" horiz-adv-x="1000" unicode="&#xea8b;" d="M702 75c9 7 23 9 35 12 22 6 43 11 65 16 12 3 18 8 18 22-1 86-1 173 0 260 0 12-4 18-17 21-39 10-78 21-116 33-10 3-21 9-28 17-51 58-101 117-151 175-15 17-32 27-55 21-23-5-37-18-44-40-6-19 0-36 13-51 22-27 45-53 67-80 2-2 4-5 5-8 2-5-1-11-6-13-3-1-6-1-10-1-104-1-208-1-312-1h-41c-38 0-62-19-62-51-1-31 24-53 61-53 14 0 28 0 42 0h194c4 0 8-1 12-1 6-1 11-3 12-5 0-2-4-5-9-6-3-1-6-1-9-1-37-1-73 0-110-1-29 0-49-17-51-43-1-25 16-45 44-47 41-2 81-1 122-2 4 0 8 0 12-1 2 0 4 0 6-1 4-1 5-5 3-7-2-1-3-2-5-2-3-1-6-2-9-2-31 0-62 0-93 0-28 0-44-15-45-40-1-24 19-46 45-46 43-1 86 0 129-1 3 0 7 0 10-1 5-1 9-4 9-6 0-2-4-4-9-5-3 0-7-1-10-1-30 0-61 0-91 0-24 0-39-13-43-36-3-20 9-42 29-48 9-3 20-4 30-4 91-1 183-1 275-1 32 1 62 7 88 29z m143 305v-256c0-15 12-27 28-27h37c15 0 28 12 28 27v256c0 15-13 27-28 27h-37c-16 0-28-12-28-27z" />
<glyph glyph-name="hand-right" horiz-adv-x="1000" unicode="&#xea8c;" d="M298 75c-9 7-23 9-35 12-22 6-43 11-65 16-12 3-18 8-18 22 1 86 1 173 0 260 0 12 4 18 17 21 39 10 78 21 116 33 11 3 21 9 28 17 51 58 101 117 151 175 15 17 32 27 56 21 22-5 36-18 43-40 6-19 0-36-13-51-22-27-45-53-67-80-2-2-4-5-5-8-2-5 1-11 6-13 3-1 7-1 10-1 104-1 208-1 312-1h41c38 0 62-19 62-51 1-31-24-53-61-53-14 0-28 0-42 0h-194c-4 0-8-1-11-1-7-1-12-3-12-5-1-2 3-5 8-6 3-1 6-1 9-1 37-1 74 0 110-1 29 0 49-17 51-43 1-25-16-45-44-47-41-2-81-1-122-2-4 0-8 0-12-1-2 0-4 0-6-1-4-1-5-5-3-7 2-1 3-2 5-2 3-1 6-2 9-2 31 0 62 0 93 0 28 0 45-15 45-40 1-24-19-46-45-46-43-1-86 0-129-1-3 0-7 0-10-1-5-1-9-4-9-6 0-2 4-4 9-5 4 0 7-1 10-1 30 0 61 0 91 0 24 0 39-13 43-36 4-20-9-42-29-48-9-3-20-4-30-4-91-1-183-1-275-1-32 1-62 7-88 29z m-143 305v-256c0-15-12-27-28-27h-37c-15 0-27 12-27 27v256c0 15 12 27 27 27h37c16 0 28-12 28-27z" />
<glyph glyph-name="hand-up" horiz-adv-x="1000" unicode="&#xea8d;" d="M775 148c-7-9-9-23-12-35-6-22-11-43-16-65-3-12-8-18-22-18-86 1-173 1-260 0-12 0-18 4-21 17-10 39-21 78-33 116-3 10-9 21-17 28-58 51-117 101-175 151-17 15-26 32-21 56 5 22 18 36 40 43 19 6 36 0 51-12 27-23 53-46 80-68 2-2 5-4 8-5 5-1 11 1 13 6 1 3 1 7 1 10 1 104 1 208 1 312v41c0 38 19 62 51 63 30 0 53-25 53-62 0-14 0-28 0-42v-194c0-4 1-7 1-11 1-7 3-12 5-12 2-1 5 3 6 8 1 3 1 6 1 9 1 37 0 74 1 111 0 28 17 49 43 50 25 1 45-16 47-44 2-40 1-81 2-122 0-3 0-7 1-11 0-3 0-5 1-7 1-4 6-5 7-2 1 1 2 3 2 5 1 3 2 6 2 9 0 31 0 62 0 93 0 27 15 44 40 45 24 1 46-19 46-45 1-43 0-86 1-129 0-4 0-7 1-10 1-5 4-10 6-10 2 1 4 5 5 10 0 3 1 6 1 9 0 31 0 61 0 92 0 24 13 39 36 43 20 3 42-9 48-29 3-10 4-20 4-30 1-92 1-184 0-275 0-33-6-63-28-89z m-305-143h256c15 0 27-12 27-28v-37c0-15-12-28-27-28h-256c-15 0-27 13-27 28v37c0 16 12 28 27 28z" />
<glyph glyph-name="line-block-down" horiz-adv-x="1000" unicode="&#xea8e;" d="M500 243l283 292 40-38-323-332-322 332 39 38z m438-331v876h-875v-876h875z m-32 32h-812v812h812v-812z m-689 591z" />
<glyph glyph-name="line-block-left" horiz-adv-x="1000" unicode="&#xea8f;" d="M393 350l292 283-38 40-332-323 332-322 38 39z m-331-438h876v876h-876v-876z m844 844v-812h-812v812h812z m-221-689z" />
<glyph glyph-name="line-block-up" horiz-adv-x="1000" unicode="&#xea91;" d="M500 457l283-292 40 38-323 332-322-332 39-38z m-437 331v-876h875v876h-875z m843-844h-812v812h812v-812z m-689 221z" />
<glyph glyph-name="long-arrow-down" horiz-adv-x="1000" unicode="&#xea92;" d="M537 624v-412h110c14 0 18-8 8-18l-137-136c-10-10-26-10-36 0l-136 136c-11 10-7 18 7 18h110v412c0 14 11 26 26 26h23c14 0 25-12 25-26z" />
<glyph glyph-name="long-arrow-left" horiz-adv-x="1000" unicode="&#xea93;" d="M774 313c14 0 26 11 26 26v22c0 15-12 26-26 26h-412v110c0 14-8 18-18 8l-136-137c-10-10-10-26 0-36l136-136c10-11 18-7 18 7v110h412z" />
<glyph glyph-name="long-arrow-right" horiz-adv-x="1000" unicode="&#xea94;" d="M226 313h412v-110c0-14 8-18 18-7l136 136c11 10 11 26 0 36l-136 137c-10 10-18 6-18-8v-110h-412c-14 0-26-11-26-25v-23c0-15 12-26 26-26z" />
<glyph glyph-name="long-arrow-up" horiz-adv-x="1000" unicode="&#xea95;" d="M537 76v412h110c14 0 18 8 8 18l-137 136c-10 11-26 11-36 0l-136-136c-11-10-7-18 7-18h110v-412c0-14 11-26 26-26h23c14 0 25 12 25 26z" />
<glyph glyph-name="rounded-collapse" horiz-adv-x="1000" unicode="&#xea96;" d="M478 418c6-6 14-9 22-9s16 3 23 9l163 164c12 12 12 32 0 45l-14 14c-13 12-33 12-45 0l-104-104c-7-7-15-10-23-10s-16 3-22 10l-105 104c-12 12-32 12-45 0l-14-14c-12-13-12-33 0-45l164-164z m45-136c-7 6-15 9-23 9s-16-3-22-9l-164-164c-12-12-12-32 0-45l14-14c13-12 33-12 45 0l105 105c6 6 14 9 22 9s16-3 23-9l104-105c12-12 32-12 45 0l14 14c12 13 12 33 0 45l-163 164z" />
<glyph glyph-name="rounded-double-left" horiz-adv-x="1000" unicode="&#xea97;" d="M212 378l203 203c15 16 40 16 56 0l17-17c16-16 16-41 0-56l-129-130c-8-8-12-18-12-28s4-20 12-28l129-130c16-15 16-40 0-56l-17-17c-16-16-41-16-56 0l-203 203c-8 8-12 18-12 28 0 10 4 20 12 28z m300 0l203 203c15 16 40 16 56 0l17-17c16-16 16-41 0-56l-129-130c-8-8-12-18-12-28s4-20 12-28l129-130c16-15 16-40 0-56l-17-17c-16-16-41-16-56 0l-203 203c-8 8-12 18-12 28 0 10 4 20 12 28z" />
<glyph glyph-name="rounded-double-right" horiz-adv-x="1000" unicode="&#xea98;" d="M788 378l-203 203c-15 16-40 16-56 0l-17-17c-16-16-16-41 0-56l129-130c8-8 12-18 12-28s-4-20-12-28l-129-130c-16-15-16-40 0-56l17-17c16-16 41-16 56 0l203 203c8 8 12 18 12 28 0 10-4 20-12 28z m-300 0l-203 203c-15 16-40 16-56 0l-17-17c-16-16-16-41 0-56l129-130c8-8 12-18 12-28s-4-20-12-28l-129-130c-16-15-16-40 0-56l17-17c16-16 41-16 56 0l203 203c8 8 12 18 12 28 0 10-4 20-12 28z" />
<glyph glyph-name="rounded-down" horiz-adv-x="1000" unicode="&#xea99;" d="M786 430l-251-251c-10-9-22-14-35-14s-25 5-34 14l-251 251c-20 19-20 50 0 69l21 22c19 19 50 19 69 0l161-160c9-10 22-14 34-14s25 4 35 14l160 160c19 19 50 19 69 0l22-22c19-19 19-50 0-69z" />
<glyph glyph-name="rounded-up" horiz-adv-x="1000" unicode="&#xeaa1;" d="M786 270l-251 251c-10 10-22 14-35 14s-25-5-34-14l-251-251c-20-19-20-50 0-69l21-22c19-19 50-19 69 0l161 160c9 10 22 15 34 15s25-5 35-15l160-160c19-19 50-19 69 0l22 22c19 19 19 50 0 69z" />
<glyph glyph-name="rounded-right" horiz-adv-x="1000" unicode="&#xeaa0;" d="M420 64l251 251c10 10 14 23 14 35s-4 25-14 35l-251 251c-19 19-50 19-69 0l-22-22c-19-19-19-50 0-69l160-160c10-10 15-22 15-35s-5-25-15-35l-160-160c-19-19-19-50 0-69l22-22c19-19 50-19 69 0z" />
<glyph glyph-name="rounded-left" horiz-adv-x="1000" unicode="&#xea9d;" d="M649 64l22 22c19 19 19 50 0 69l-160 160c-10 10-15 22-15 35s5 25 15 35l160 160c19 19 19 50 0 69l-22 22c-19 19-50 19-69 0l-251-251c-9-10-14-22-14-35s4-25 14-35l251-251c19-19 50-19 69 0z" />
<glyph glyph-name="rounded-expand" horiz-adv-x="1000" unicode="&#xea9a;" d="M328 418c13-12 33-12 45 0l105 105c6 6 14 9 22 9s16-3 23-9l104-105c12-12 32-12 45 0l14 14c12 13 12 33 0 45l-163 164c-7 6-15 9-23 9s-16-3-22-9l-164-164c-12-12-12-32 0-45l14-14z m344-136c-13 12-33 12-45 0l-104-104c-7-7-15-10-23-10s-16 3-22 10l-105 104c-12 12-32 12-45 0l-14-14c-12-13-12-33 0-45l164-164c6-6 14-9 22-9s16 3 23 9l163 164c12 12 12 32 0 45l-14 14z" />
<glyph glyph-name="simple-down" horiz-adv-x="1000" unicode="&#xeab2;" d="M200 457l300-300 300 300-85 86-215-215-215 215-85-86z" />
<glyph glyph-name="simple-up" horiz-adv-x="1000" unicode="&#xeab9;" d="M285 157l215 215 215-215 85 86-300 300-300-300 85-86z" />
<glyph glyph-name="simple-right" horiz-adv-x="1000" unicode="&#xeab8;" d="M393 50l300 300-300 300-85-85 214-215-215-215z" />
<glyph glyph-name="simple-left" horiz-adv-x="1000" unicode="&#xeab5;" d="M607 650l-300-300 300-300 86 85-215 215 215 215z" />
<glyph glyph-name="square-down" horiz-adv-x="1000" unicode="&#xeaba;" d="M871 788h-742c-37 0-66-30-66-67v-742c0-37 29-66 66-66h742c37 0 66 29 66 66v742c1 37-29 67-66 67z m-57-337l-296-296c-10-10-26-10-35 0l-296 296c-10 10-10 26 0 35l59 59c9 10 25 10 35 0l202-202c9-10 25-10 35 0l202 202c9 10 25 10 35 0l59-59c9-9 9-25 0-35z" />
<glyph glyph-name="square-left" horiz-adv-x="1000" unicode="&#xeabb;" d="M938-21v742c0 37-30 67-67 67h-742c-37 0-66-30-66-67v-742c0-37 29-66 66-66h742c37-1 67 29 67 66z m-337 57l-296 296c-10 10-10 26 0 35l296 296c10 10 26 10 35 0l59-58c10-10 10-26 0-36l-202-202c-10-9-10-25 0-35l202-202c10-9 10-25 0-35l-59-59c-9-9-25-9-35 0z" />
<glyph glyph-name="square-right" horiz-adv-x="1000" unicode="&#xeabc;" d="M63 721v-742c0-37 29-66 66-66h742c37 0 66 29 66 66v742c0 37-29 67-66 67h-742c-37 0-66-30-66-67z m336-57l296-296c10-10 10-26 0-35l-296-296c-10-10-26-10-35 0l-59 59c-10 9-10 25 0 35l202 202c10 9 10 25 0 35l-202 202c-10 9-10 25 0 35l59 59c9 9 25 9 35 0z" />
<glyph glyph-name="square-up" horiz-adv-x="1000" unicode="&#xeabd;" d="M129-88h742c37 0 66 30 66 67v742c0 37-29 67-66 67h-742c-37 0-66-30-66-67v-742c0-37 29-67 66-67z m57 337l296 296c10 10 26 10 35 0l296-296c10-10 10-26 0-35l-58-59c-10-10-26-10-36 0l-202 202c-9 10-25 10-35 0l-202-202c-9-10-25-10-35 0l-59 59c-9 9-9 25 0 35z" />
<glyph glyph-name="stylish-down" horiz-adv-x="1000" unicode="&#xeabe;" d="M267 614l-48-30c-11-7-11-17 0-24l262-165c11-7 27-7 38 0l178 112c10 7 19 2 19-10v-4c0-12-9-27-19-33-41-26-138-87-178-112-11-7-27-7-38 0l-177 112c-10 6-27 6-37 0-15-9-34-22-48-30-11-7-19-22-19-34v-111c0-12 7-26 16-32l265-167c11-6 27-6 38 0l262 166c11 6 11 17 0 23l-48 30c-10 7-27 7-37 0l-177-112c-11-6-27-6-38 0l-177 112c-10 7-19 22-19 34v3c0 13 8 17 18 11l178-113c11-6 27-6 38 0l178 113c10 6 27 17 37 23l47 30c11 6 19 21 19 34v110c0 12-8 27-19 34-14 9-33 21-47 30-11 7-27 7-38 0l-177-112c-11-6-27-6-38 0l-177 112c-10 7-27 7-37 0z" />
<glyph glyph-name="stylish-left" horiz-adv-x="1000" unicode="&#xeabf;" d="M764 584l-30 47c-7 11-17 11-24 0l-165-262c-7-11-7-27 0-38l112-178c7-10 2-18-10-18h-4c-12 0-27 8-33 18-26 41-87 138-112 178-7 11-7 27 0 38l112 177c6 10 6 27 0 37-9 15-21 34-30 48-7 11-22 19-34 19h-111c-12 0-26-7-32-16l-10-17-157-248c-6-11-6-27 0-38l166-262c6-10 17-10 23 0l30 48c7 10 7 27 0 37l-112 177c-6 11-6 27 0 38l112 177c7 11 22 19 34 19h4c12 1 16-8 10-18l-113-178c-6-11-6-27 0-38l113-178 23-37 30-47c6-11 21-19 34-19h110c12 0 27 8 34 19 9 14 21 33 30 48 6 10 6 27 0 37l-112 177c-6 11-6 27 0 38l112 177c7 11 7 27 0 38z" />
<glyph glyph-name="stylish-right" horiz-adv-x="1000" unicode="&#xeac0;" d="M236 584l30 47c7 11 17 11 24 0l165-262c7-11 7-27 0-38l-112-178c-7-10-2-18 10-18h4c12 0 27 8 33 18 26 41 87 138 112 178 7 11 7 27 0 38l-112 177c-6 11-6 27 0 38 9 14 22 33 31 47 6 11 21 19 33 19h111c12 0 26-7 32-16l11-17 156-248c7-11 7-27 0-38l-165-262c-7-10-17-10-24 0l-30 48c-7 10-7 27 0 37l112 178c6 10 6 27 0 37l-112 177c-7 11-22 19-34 19h-3c-13 1-17-8-11-18l113-178c6-11 6-27 0-38l-113-178-23-37-30-47c-6-11-21-19-33-19h-111c-12 0-27 8-34 19-9 14-21 33-30 48-6 10-6 27 0 37l112 177c7 11 7 27 0 38l-112 177c-6 11-6 27 0 38z" />
<glyph glyph-name="stylish-up" horiz-adv-x="1000" unicode="&#xeac1;" d="M267 86l-48 30c-11 7-11 17 0 24l262 165c11 7 27 7 38 0l178-112c10-7 19-2 19 10v4c0 12-9 27-19 33-41 26-138 87-178 112-11 7-27 7-38 0l-177-112c-10-6-27-6-37 0-15 9-34 22-48 31-11 6-19 21-19 33v111c0 12 7 26 16 32l265 167c11 7 27 7 38 0l262-165c11-7 11-17 0-24l-48-30c-10-7-27-7-37 0l-177 112c-11 6-27 6-38 0l-177-112c-10-7-19-22-19-34v-3c0-13 8-17 18-11l178 113c11 6 27 6 38 0l178-113c10-6 27-16 37-23l47-30c11-6 19-21 19-33v-111c0-12-8-27-19-34-14-9-33-21-47-30-11-6-27-6-38 0l-177 112c-11 7-27 7-38 0l-177-112c-10-6-27-6-37 0z" />
<glyph glyph-name="thin-down" horiz-adv-x="1000" unicode="&#xeac8;" d="M800 497l-300-309-300 309 17 16 283-292 284 291 16-15z" />
<glyph glyph-name="thin-left" horiz-adv-x="1000" unicode="&#xeac9;" d="M663 634l-292-284 291-284-16-16-308 300 308 300 17-16z" />
<glyph glyph-name="thin-right" horiz-adv-x="1000" unicode="&#xeaca;" d="M338 66l292 284-292 284 16 16 308-300-308-300-16 16z" />
<glyph glyph-name="thin-up" horiz-adv-x="1000" unicode="&#xeacb;" d="M784 188l-284 291-284-291-16 16 300 308 300-308-16-16z" />
<glyph glyph-name="thin-double-left" horiz-adv-x="1000" unicode="&#xeac6;" d="M533 634l-16 16-309-300 309-300 16 16-292 284 292 284z m258 0l-16 16-308-300 308-300 16 16-291 284 291 284z" />
<glyph glyph-name="thin-double-right" horiz-adv-x="1000" unicode="&#xeac7;" d="M467 634l16 16 308-300-308-300-16 16 292 284-292 284z m-259 0l16 16 309-300-309-300-16 16 292 284-292 284z" />
<glyph glyph-name="atom" horiz-adv-x="1000" unicode="&#xeacd;" d="M955-61c7 7 12 15 18 23 3 7 7 13 10 20 2 4 4 9 5 14 2 4 3 9 5 13 4 16 7 32 7 49 0 102-83 185-185 185-42 0-80-14-111-38l-79 96c8 19 13 39 13 61 0 48-23 90-58 117 0 3 1 6 2 9 11 31 22 62 30 94 2 7 5 12 8 15 10-2 21-4 31-4 65 0 118 52 118 117s-53 117-118 117-117-52-117-117c0-43 23-80 57-100 0-4-1-8-4-13-16-29-31-58-45-88-1-3-2-5-4-7-15 6-31 9-49 9-82 0-149-67-149-149 0-12 2-23 5-34l-92-52c-23 42-67 71-118 71-75 0-135-60-135-134 0-74 60-134 135-134s134 60 134 134c0 8-1 15-2 22 1 1 2 1 3 2l102 34c17-22 39-38 65-48 41-18 88-14 132 13l0 0 92-76c-19-29-31-64-31-102 0-102 83-185 185-185 55 0 103 25 137 62 1 1 2 3 3 4z" />
<glyph glyph-name="bell-alt" horiz-adv-x="1000" unicode="&#xeacf;" d="M689 776c21 0 54-6 86-18 6-3 7-1 7 5 2 27 12 50 34 66 29 23 61 27 94 12 35-17 53-46 51-85-1-48-36-82-87-86-7-1-8-2-5-8 27-73 23-145 1-218-23-72-61-136-114-189-51-51-75-113-90-181-7-31-13-61-24-91-13-34-39-50-74-53-42-4-82 6-120 21-62 25-116 63-166 106-66 57-125 119-173 191-29 45-54 92-65 144-6 25-8 49-4 74 5 38 27 60 63 70 35 11 71 16 107 24 29 6 57 13 84 24 27 12 49 29 70 49 37 37 79 68 126 93 58 31 120 50 199 50z m52-91c-20 7-39 9-58 10-52 1-96-19-136-51-41-33-77-71-116-106-42-39-87-73-139-97-41-19-84-33-130-32-9 0-11-2-10-11 6-33 25-57 51-77 9-6 19-9 30-7 12 3 24 5 36 9 61 20 109 58 149 107 49 60 99 119 157 170 48 41 98 79 166 85z m131 119c-25 0-45-19-45-44-1-25 20-46 45-46 24 0 44 21 45 45 0 25-20 45-45 45z m-636-864c0 27 11 50 31 69 5 4 8 3 12 0 40-32 82-61 129-83 5-2 5-5 4-10-13-53-78-82-126-56-32 16-49 43-50 80z" />
<glyph glyph-name="award" horiz-adv-x="1000" unicode="&#xeace;" d="M910 785c-7 38-36 55-78 50-15-2-20 0-17 15h-631c2-12 2-18-15-16-49 7-78-16-83-67-7-62 2-123 29-179 30-64 68-79 141-57 18 5 25 1 34-14 28-45 65-83 115-106 9-4 9-8 5-16-21-45-29-94-36-142-1-11 2-13 12-13 73 0 147 1 221 0 15 0 13 9 12 18-6 45-14 89-33 131-5 11-5 16 7 22 52 23 89 62 119 110 7 12 13 17 28 11 14-6 29-7 43-10 36-6 64 7 83 36 46 69 59 146 44 227z m-657-225c-15-2-29-6-45-9-25-4-42 9-55 28-24 33-33 71-39 110-2 15-3 30-4 38 0 23 2 40 8 55 9 24 52 34 71 16 3-3 3-7 3-11 14-74 33-146 67-214 3-7 3-11-6-13z m129-35c-11-9-18 0-25 9-47 70-76 148-97 228-1 2-1 4-1 6 1 8 3 14 12 16 9 1 15-2 18-12 6-23 13-46 21-68 18-54 40-105 73-152 7-9 10-19-1-27z m507 207c-2-46-8-92-30-133-31-59-57-54-115-38-9 3-5 7-3 11 33 69 53 142 67 217 0 4 0 7 4 10 25 20 67 5 73-26 3-14 6-27 4-41z m-198-548c-1 25-16 39-41 40-16 0-31 0-46 0-85 0-170 0-254 0-28 0-44-14-44-39-1-33 0-66 0-99h-99v-236h585v236h-102c0 33 1 65 1 98z" />
<glyph glyph-name="book" horiz-adv-x="1000" unicode="&#xead2;" d="M391 140c39-13 77-27 105-59v13c0 150 0 300 0 450 0 15-5 25-16 33-2 2-4 3-6 4-30 22-65 34-100 44-72 21-147 32-222 39-16 1-33 1-50 2v-480c29-2 57-4 86-6 69-7 137-19 203-40z m113-47v-12c23 27 53 41 85 52 86 31 177 44 269 50 13 1 27 2 40 2v481c-7 0-13 0-19-1-38-3-77-6-115-11-59-8-117-20-173-40-28-11-56-23-78-43-6-6-9-12-9-21 0-152 0-304 0-457z m409 495v-417c-3-1-5-1-7-1-89-2-176-13-261-35-54-14-107-29-145-70-19 23-46 36-74 47-89 34-183 48-278 56-20 1-40 2-61 3v417h-24v-455c7 0 14-1 21-1 85-3 168-12 251-30 59-13 119-26 166-68 19 20 44 32 70 42 93 32 191 45 290 53 25 2 51 3 77 4v455h-25z" />
<glyph glyph-name="certificate" horiz-adv-x="1000" unicode="&#xead6;" d="M773 596v-147c-8 2-17 5-26 7v119c0 17-10 43-22 57-15 17-30 35-45 52-12 14-23 28-36 42-11 13-35 24-53 24h-378c-17 0-32-15-32-32v-736c0-18 15-32 32-32h333v-38h-356c-20 0-36 16-36 36v804c0 20 16 36 36 36h413c19 0 45-13 58-27 13-16 27-31 40-45 16-20 32-39 49-58 13-15 23-43 23-62z m68-341c6 7 6 15 0 22-4 5-9 10-14 15-6 7-9 14-6 23 2 6 4 12 6 19 3 11 1 16-10 21-5 3-11 5-17 7-9 3-15 10-16 19-1 7-2 14-3 20-2 10-7 14-17 14-7 0-14 0-20-1-10-1-17 3-23 11-3 5-6 10-10 15-7 9-13 11-24 5-4-2-8-4-11-7-12-8-23-8-34 1-4 2-9 5-13 7-9 4-16 3-22-5-4-5-7-11-11-17-5-8-12-11-22-10-7 1-14 1-22 1-8 0-13-4-15-12-2-7-3-14-4-21-1-10-6-16-15-20-6-2-12-4-18-7-10-5-13-10-10-21 1-5 3-11 5-16 4-11 2-20-6-27-4-4-7-8-11-12-8-9-8-17 0-26 3-4 7-8 10-11 9-8 11-17 7-28-2-5-4-10-5-16-3-11 0-17 10-21 6-3 12-5 18-7 9-4 14-10 15-20 1-4 1-8 2-12 2-18 8-23 25-21 3 0 5 0 8 1 15 3 24-4 32-16 13-23 18-24 40-10 13 9 24 9 37 1 22-15 27-13 40 8 8 13 17 20 32 16 4-1 8 0 12-1 12 0 17 3 20 15 1 5 2 9 2 13 1 15 7 24 21 28 5 1 10 3 14 5 9 4 12 10 9 20-1 6-3 12-5 17-4 11-2 19 6 27 5 4 9 9 13 14z m-98-174v-168c-20 10-40 18-58 29-17 12-32 12-50 0-17-10-35-18-54-27l-3-2v168c4-4 9-6 11-10l13-18c8-10 17-12 28-6 5 2 10 4 15 8 9 7 18 6 28-1 3-3 8-5 13-7 12-6 22-3 30 8 5 6 8 12 13 18 3 3 8 5 14 8z" />
<glyph glyph-name="education" horiz-adv-x="1000" unicode="&#xead7;" d="M469 388c3 14 3 22-15 25-69 10-139 16-209 13-78-4-155-13-232-23-14-2-14-10-12-22 10-74 20-149 31-224 6-45 12-91 18-136 2-8 2-19 15-19 49-2 96-17 142-31 51-16 101-35 140-74 5-5 7-15 15-13 9 3 7 13 9 20 17 87 34 174 51 260 16 75 31 150 47 224z m456-170c-42 25-83 51-125 76-80 47-166 83-256 108-12 4-20 5-25-12-21-78-42-156-62-235-21-87-44-173-66-259-1-4-2-9 2-12 3-2 7 1 10 2 33 17 70 18 106 22 13 1 27-3 40-4 52-4 104-11 153-28 16-6 24-4 32 11 63 104 129 205 196 306 8 12 7 18-5 25z m63 123c-15 4-28 11-42 16-89 32-182 49-276 57-36 4-73 9-110 1l10-2c61-11 121-25 178-51 59-27 114-59 165-99 10-7 15-8 24 3 17 21 35 40 53 61 6 6 10 10-2 14z m-958 109c3-11 9-12 18-9 32 10 65 14 98 18 62 8 124 11 185-1 25-5 49-8 74-12l1 6c-20 7-41 14-61 22-105 40-215 60-327 67-11 1-14-3-11-13 8-26 16-52 23-78z m951 21c-72 14-145 13-218 10-68-2-137-10-203-32 10 1 20 3 30 3 118 2 236-5 351-39 43-13 42-11 57 32 6 20-1 23-17 26z m-918 121c98-10 191-40 281-79 25-10 50-21 80-33-8 14-17 19-26 25-90 59-186 110-288 146-53 19-60 15-63-41 0-12 3-17 16-18z m375-12c-56 41-113 82-170 123-4-5-7-10-11-15 57-41 114-82 170-123 4 5 7 10 11 15z m180 1c49 51 97 101 146 151-5 5-9 9-14 14-49-51-97-101-146-151 5-5 9-9 14-14z m28-60c69 16 137 32 205 48-2 6-3 12-5 18-68-16-136-32-204-48 1-6 3-12 4-18z m-44 302c-6 2-12 3-18 4-14-69-27-137-41-206 6-1 12-3 18-4 14 69 28 137 41 206z m-114-209c6 2 6 4 4 9-20 50-39 100-59 150l-14 35c-1 3-2 4-5 3-5-2-9-3-14-5 26-66 52-131 77-196 4 2 8 4 11 4z m-85 33l38-49c2-2 5-5 7-8 5 4 10 8 15 12-20 25-39 49-58 74-5-4-8-7-12-10-3-2-2-4-1-6 4-5 7-9 11-13z m101 13c1-13 2-26 4-40 6 1 12 1 18 2-2 31-5 62-8 93-6 0-10-1-15-1-4 0-5-2-4-5 2-17 3-33 5-49z m199-46c-13-8-27-15-41-23-12-7-23-14-35-21 3-5 6-11 9-16 27 15 54 30 81 46-3 4-6 8-7 12-2 4-3 4-7 2z m-112-10c14 27 29 55 43 83-6 3-11 5-17 8-14-28-28-55-43-82 6-3 11-6 17-9z" />
<glyph glyph-name="electron" horiz-adv-x="1000" unicode="&#xead8;" d="M964 600c-28 48-87 74-171 74-24 0-51-3-79-7-43 112-108 183-183 183-22 0-43-7-64-19-12 8-25 12-40 12-42 0-77-34-77-76 0-20 8-37 20-51-8-15-16-31-22-49-28 4-55 7-79 7-84 0-143-26-171-74-38-65-9-157 67-250-23-28-41-56-55-83-4 1-9 2-14 2-42 0-77-34-77-77 0-40 32-73 72-76 2-5 4-11 7-16 28-49 87-74 171-74 24 0 51 2 79 7 43-112 108-183 183-183 75 0 141 71 183 183 28-4 55-7 80-7 5 0 9 0 14 1 14-21 38-35 65-35 42 0 76 34 76 76 0 4 0 7-1 11 6 6 12 13 16 21 38 65 9 157-66 250 75 93 104 185 66 250z m-250-87c-21 14-42 28-65 41-23 13-46 25-69 36 37 14 73 25 108 32 11-33 19-70 26-109z m-39 146c-46-10-95-26-144-47-49 21-97 37-144 47 5 13 10 24 16 35 7-2 15-4 24-4 42 0 76 34 76 77 0 12-3 24-9 35 12 5 25 9 37 9 56 0 108-59 144-152z m-301-37c35-8 71-18 108-32-23-11-46-23-69-36-22-13-44-27-65-41 7 39 16 75 26 109z m-242-42c20 35 69 55 137 55 20 0 43-2 66-6-14-44-24-94-31-148-43-32-81-66-113-100-62 77-87 151-59 199z m167-307c-31 25-58 51-82 77 24 26 51 52 82 77-2-25-3-51-3-77 0-26 1-52 3-77z m-30-208c-68 0-117 20-137 55-1 1-1 3-2 4 25 13 43 38 43 68 0 24-11 44-27 58 11 23 26 46 45 70 32-35 70-69 113-101 7-54 17-104 31-148-23-4-46-6-66-6z m79 122c21-14 43-28 65-41 23-13 46-25 69-36-37-14-73-24-108-32-10 33-19 70-26 109z m183-298c-56 0-107 59-144 152 46 10 95 26 144 47 49-21 98-37 144-47-36-93-88-152-144-152z m157 189c-35 8-71 18-108 32 23 11 46 23 69 36 23 13 44 27 65 41-7-39-15-76-26-109z m33 162c-29-21-59-41-92-60-32-19-65-35-98-50-33 15-65 31-98 50-33 19-63 39-92 60-4 36-6 72-6 110s2 74 6 110c29 21 59 41 92 60 33 19 65 35 98 50 33-15 66-31 98-50 33-19 63-39 92-60 4-36 6-72 6-110 0-38-2-74-6-110z m73 395c67 0 116-19 136-55 28-48 3-122-59-199-32 34-70 68-113 100-6 54-17 104-31 148 23 3 46 6 67 6z m-31-208c31-25 58-51 82-77-24-26-51-52-82-77 2 25 3 51 3 77s-1 52-3 77z m167-307l0-1c-14 16-35 26-57 26-43 0-77-34-77-77 0-1 0-2 0-3l-2 0c-21 0-43 2-66 6 13 44 24 94 30 148 43 32 81 66 113 100 62-77 87-151 59-199z m-399 323c-51 0-93-41-93-93s42-93 93-93c51 0 93 41 93 93 0 51-42 93-93 93z" />
<glyph glyph-name="globe-alt" horiz-adv-x="1000" unicode="&#xeada;" d="M948 437v-49c-2-11-3-23-5-34-36-221-238-367-458-326-152 28-256 119-303 266-47 149-14 285 97 396 203 204 545 126 645-144 13-35 18-72 24-109z m-668 179c20 0 20 0 20-19 1-18-1-37 8-54 9-18 18-37 26-55 5-12 13-19 27-17 12 1 22-4 26-16 18-41 50-68 87-91 14-10 28-18 46-16 13 1 19-5 18-19-1-18 0-37 0-55 0-13 4-19 17-18 12 0 18-4 18-17 1-13-4-20-17-19-14 1-19-6-18-19 0-25 0-50 0-75 0-54-7-47 48-47 8 0 17-2 19 8 1 12-9 10-16 11-4 0-8-1-9 4-1 4 3 6 5 8 9 9 18 17 27 25 44 38 85 78 104 136 8 25 6 35-17 48-6 2-12 5-17 8-48 31-98 46-156 41-35-2-58 26-75 51-20 29 0 55 35 52 10-1 14-5 14-15l0-31c0-9 4-15 14-15 8 0 11 6 11 14 0 14 2 28 0 42-3 25 7 42 28 54 10 6 19 10 31 10 14 0 28 0 43 0 6 0 15-1 15 7 0 10-9 9-16 10-2 0-4 0-6 0-12-1-17 5-17 16 0 6 0 12 0 18 0 24 0 24-24 28-9 1-11 4-5 11 7 7 13 13 20 20 5 6 12 13 9 21-3 10-13 6-21 7-37 3-57 24-57 62 0 4 0 8 0 12 2 10-3 12-13 11-31-5-61-12-90-25-57-25-104-61-142-112z m338 102c0-7 0-15 0-22-1-10 4-15 14-16 24-4 24-4 24-29 0-6 0-11 0-16 0-10 7-14 16-14 8 1 15 3 21 8 20 16 39 32 59 47 10 8 7 12-1 18-32 21-65 37-101 48-32 9-32 9-32-24z m-566-274c7 46 13 92 28 137 38 108 104 194 197 259 22 15 43 13 55-4 13-18 7-38-15-53-110-77-175-183-192-316-27-219 117-428 331-482 119-30 231-13 336 48 5 3 10 7 15 9 17 7 37 0 45-16 8-17 3-36-15-47-35-23-74-40-114-53-5-2-12-1-16-8 33-17 69-30 85-68h-493c10 30 36 44 61 57 14 7 28 12 43 18-4 7-10 7-15 9-142 55-242 154-300 295-21 51-30 105-36 159 0 19 0 37 0 56z" />
<glyph glyph-name="pencil-alt-5" horiz-adv-x="1000" unicode="&#xeae8;" d="M976 615l-211 211c-15 15-35 23-57 23s-42-8-57-23l-593-593c-14-15-28-35-39-62-12-27-18-53-18-77v-243h244c25 0 50 6 76 17s47 25 62 40l593 593c15 15 23 34 23 57s-8 42-23 57z m-376 7l66-67-448-449-68 66 450 450z m-355-663h-82l-54 55v80c0 8 3 19 9 34l23-24c16-14 35-34 59-57 23-24 41-42 52-52 11-11 20-20 27-27-13-6-24-9-34-9z m77 41l-66 68 449 448 67-66-450-450z m487 488l-171 173 70 69 171-172-70-70z" />
<glyph glyph-name="student-alt" horiz-adv-x="1000" unicode="&#xeaee;" d="M828-121c0 5-1 11-1 17-1 1-1 3-1 6-2 65-6 131-13 196-6 50-14 100-23 149-6 32-22 52-51 64-18 7-35 14-52 21-11 3-15 1-19-8-14-32-35-60-62-82-23-20-48-36-74-51-13-7-17-16-17-31 1-87 0-174 0-261l0-2h-30c0 0 0 1 0 2 0 89 0 179 0 268 0 9-2 15-10 19-16 10-32 20-48 30-24 17-47 34-65 57-13 17-23 36-33 54-2 5-4 9-11 7-27-10-54-19-78-34-13-9-23-20-26-35-19-75-27-151-33-228-4-46-8-93-8-140h0c0-6-1-12-1-18-1-20 8-29 28-29h600c20 0 29 9 28 29z m-486 640c10-6 15-15 19-25 15-38 33-75 62-104 44-42 101-43 145-2 35 31 57 71 74 114 3 7 7 12 13 17 27 18 31 44 12 69-3 4-1 7 0 10 5 16 10 32 10 49 1 43-17 79-45 109-7 8-8 14-4 22 5 10 11 19 17 30-17-1-30-7-42-14-8-5-10-2-14 4-8 16-10 34-15 52-9-8-13-17-17-27-4-9-8-8-15-3-9 8-17 18-29 25-1-3-1-4-2-6-3-8 7-19-2-24-6-4-17-2-25-2l-1 0c-71-9-121-46-152-109-17-33-13-67-4-102 2-5 6-9 1-15-21-26-8-55 14-68z m36 74c35-1 70 1 105 10 36 9 69 26 97 54 9-31 24-55 47-75 3-3 4-7 3-11-16-55-36-109-77-151-11-12-24-22-40-26-30-8-53 6-73 27-28 31-42 68-55 107-6 18-10 37-16 55-3 9 0 11 9 10z m217-239c-4 1-7 1-9-3-15-39-50-58-81-81-3-2-5-4-10-1-31 23-65 42-81 80-2 3-3 7-7 6-16-4-31-6-46-9-6-1-5-5-3-8 12-20 23-40 39-57 27-31 64-50 98-73 5-3 8-1 11 1 19 13 38 25 56 37 35 23 59 55 78 91 3 5 4 8-3 9-14 2-28 5-42 8z" />
<glyph glyph-name="student" horiz-adv-x="1000" unicode="&#xeaef;" d="M781 107c-1 9-3 12-13 9-60-17-120-34-181-46-31-6-62-13-93-11-31 2-62 7-92 14-56 13-112 27-167 44-9 2-11 0-12-8-10-71-17-142-20-214 0-7-1-11-1-15h0c0-3 0-5 0-8-1-15 7-22 26-22h551c19 0 27 7 26 22 0 3 0 5-1 8-3 76-12 152-23 227z m-523 302c9 0 11 2 10 10-2 40 0 79 10 117 5 21 13 41 32 58 5-32 19-58 41-79 6-5 10-12 15-19 17-31 37-59 65-81 42-33 91-34 134-3 30 23 52 53 70 85 2 5 5 10 9 14 20 19 33 44 41 71 1 4-1 10 3 11 6 1 8-5 11-9 17-21 24-47 28-73 5-30 6-61 5-91 0-6-1-11 7-12 48-5 85 27 84 75-2 66-56 133-120 146-11 3-12 7-12 16 2 24 1 49-8 72-27 77-82 122-161 132-82 9-146-25-190-96-20-32-26-68-24-106 1-10-2-16-13-18-37-8-66-30-87-60-19-25-30-53-30-83-1-47 24-80 80-77z m110 198c21 5 30 23 40 40 4 8 7 16 13 28 5-21 5-38 0-54-2-8 0-12 8-12 11 0 20 2 27 10 17 17 25 39 32 61 2 4 2 8 5 11 6-21 5-42 3-63 0-7 3-10 9-10 39-6 79-8 118 1 16 3 16 3 14-12-10-56-33-106-70-148-42-47-95-46-135 1-3 3-5 5-7 7-30 39-50 81-60 129-1 4-5 9 3 11z m10-323c2 26 6 53 9 80-32-9-62-21-89-38-21-12-34-29-41-52-10-34-17-67-24-101-2-11 1-13 11-16 69-22 139-39 210-51 20-4 40-10 61-6 82 13 164 31 244 56 11 4 13 8 11 18-7 33-13 66-23 98-6 23-20 41-40 53-25 16-53 27-80 37-11 3-11-2-10-9 6-28 8-56 10-85 2-23 1-46 1-70-39 23-78 47-116 70-7 5-12 5-19 1-37-23-74-45-111-68-6-4-9-3-8 5 1 26 2 52 4 78z" />
<glyph glyph-name="teacher" horiz-adv-x="1000" unicode="&#xeaf0;" d="M894-102c-1 22-4 44-6 66-7 57-17 113-31 169-6 21-13 41-20 62-13 41-43 64-81 79-31 12-63 19-94 30-7 3-9 1-10-5-6-24-12-48-19-71-18-67-37-133-66-195-1-4-2-8-6-9 0 0-1 1-1 1-7 36-15 72-21 107-5 31-18 62-6 94 4 11-2 16-11 22-16 11-28 11-43 0-13-9-13-8-10-24 2-12 6-24 3-37-8-41-15-82-23-123-3-14-6-27-9-43-10 18-16 34-22 50-27 69-46 140-65 211-2 8-1 20-7 23-6 2-16-4-24-7-32-10-64-17-95-32-29-14-49-35-61-65-14-37-24-74-32-112-14-68-25-136-27-205-1-23 9-34 33-34 239 0 478 0 717 0 15 0 27 3 34 15 3 9 3 23 3 32 0 0 0 1 0 1z m-575 602c10-3 13-8 16-16 19-46 43-89 82-121 30-24 63-37 102-31 28 4 51 18 72 37 36 33 60 74 77 120 2 3 2 9 6 9 16 0 22 13 32 21 17 13 18 31 14 50-1 9-6 14-15 13-8-1-9 2-7 8 5 25 8 50 9 78-1 7-1 16-2 25-3 20-8 38-28 49-4 2-5 5-7 9-19 36-45 64-82 81-25 11-50 16-76 18-69 3-126-18-164-79-2-5-6-6-10-8-15-6-27-17-34-31-9-19-14-40-15-60-1-28 3-55 9-83 1-4 1-7-5-7-6 0-10-4-11-9-10-28 9-66 37-73z m43 60c-1 8 1 16 10 20 4 2 8 3 12-2 3-5 8-5 12-4 6 0 9-1 8-8-1-12 7-20 17-20 11 1 18 10 16 22-1 5 1 6 5 6 5 0 11-1 16 2 3 2 4 0 5-2 10-12 10-28 0-39-19-20-44-28-71-23-16 3-27 20-30 41 0 3 0 5 0 7z m257-101c-16-29-34-56-61-76-40-29-82-28-122 6-32 28-53 64-70 103 0 1 0 2 0 4 28-13 56-10 82 2 25 12 43 28 43 58 1 7 5 6 9 6 4-1 9 1 10-6 7-41 39-67 82-68 8 0 15 0 23 1 7 2 13 5 21 7-4-14-11-25-17-37z m-23 52c-18 0-35 5-50 16-9 7-15 16-16 28 0 7 4 13 7 19 2 2 4 3 8 2 12-1 21-3 21-19-1-8 11-12 19-10 9 3 14 10 12 18-2 9 2 9 8 9 4 0 8 0 12 3 8 7 18 4 21-7 9-25-15-60-42-59z m-226 196c3 3 5 3 7 0 37-47 89-59 145-62 23-1 45 1 67 8 12 3 16 9 13 17-4 9-11 8-19 6-42-12-83-10-124 3-2 1-3 2-5 2 22-3 43-5 65-4 37 1 71 12 100 35 8 6 11 4 15-3 12-20 17-41 20-63 2-20 3-40 2-63-13 21-32 18-51 18-19 0-38 0-57 0-12 0-20-5-26-15-4-5-7-7-13-6-3 1-6 1-9 0-11-1-19 1-25 11-4 7-12 10-21 10-24 0-47 0-71 0-20 0-23-2-37-15-15 36-3 95 24 121z" />
<glyph glyph-name="university" horiz-adv-x="1000" unicode="&#xeaf3;" d="M196 369h111v-317h-111z m166 0h110v-317h-110z m166 0h110v-317h-110z m165 0h111v-317h-111z m-180 288v73h67l4-24h84v119h-67l-4 25h-108v-193l-403-161v-55h55c0-8 3-14 9-19 6-6 13-9 21-9h658c8 0 15 3 21 9 6 5 9 11 9 19h55v55l-401 161z m392-732c-6 6-13 8-21 8h-768c-8 0-15-2-21-8-6-5-9-12-9-19v-56h828v56c0 7-3 14-9 19z m-787 57c0-13 11-24 25-24h711c14 0 25 11 25 24s-11 25-25 25h-711c-14 0-25-11-25-25z" />
<glyph glyph-name="angry" horiz-adv-x="1000" unicode="&#xeaf4;" d="M313 207l44-51c80 69 205 69 285 0l44 51c-106 92-267 92-373 0z m-26 210h28c0-11 3-22 9-32 13-24 37-36 61-36 12 0 24 2 35 9 22 12 35 26 36 59h87c1-33 14-47 36-59 11-7 23-9 35-9 25 0 49 12 62 36 5 10 8 21 9 32h28v68h-426v-68z m213 433c-276 0-500-224-500-500s224-500 500-500 500 224 500 500-224 500-500 500z m0-933c-238 0-433 195-433 433s195 433 433 433 433-194 433-433-194-433-433-433z" />
<glyph glyph-name="astonished" horiz-adv-x="1000" unicode="&#xeaf5;" d="M482 425c0 46-38 83-83 83s-83-37-83-83 37-83 83-83 83 37 83 83z m-83-15c-8 0-15 7-15 15s7 15 15 15c8 0 15-7 15-15s-7-15-15-15z m243 87c-40 22-90 8-113-32-11-19-13-41-7-62s19-39 39-50c12-7 26-11 40-11 29 0 57 15 72 42 23 40 8 91-31 113z m-28-79c-4-8-13-10-20-6h0c-5 2-7 7-7 9-1 2-2 7 1 12 3 4 8 7 13 7 3 0 5 0 8-2 7-4 10-13 5-20z m-73-213c-40 22-91 8-113-32-11-19-13-41-8-62s20-39 40-50c12-7 26-11 40-11 29 0 57 15 72 42 22 40 8 90-31 113z m-28-79c-4-8-13-11-20-6h0c-5 2-7 7-8 9 0 2-1 7 2 11 3 5 8 8 13 8 3 0 5 0 8-2 7-4 9-13 5-20z m-13 724c-276 0-500-224-500-500s224-500 500-500 500 224 500 500-224 500-500 500z m0-933c-238 0-433 195-433 433s195 433 433 433 433-194 433-433-194-433-433-433z" />
<glyph glyph-name="confounded" horiz-adv-x="1000" unicode="&#xeaf6;" d="M374 341c52 0 95 43 95 95s-43 95-95 95c-53 0-95-43-95-95s42-95 95-95z m0 123c15 0 27-13 27-28s-12-27-27-27c-15 0-28 12-28 27s13 28 28 28z m299 55c-22 12-48 15-72 9-25-7-45-23-57-45-13-22-16-48-9-72 7-25 23-45 45-57 14-9 30-13 46-13 9 0 17 1 26 4 24 7 45 23 57 45 12 22 16 47 9 72-7 24-23 44-45 57z m-23-96c-3-7-9-11-16-13-7-2-15-1-21 2h0c-6 4-11 10-13 17-2 7-1 14 3 21 3 6 9 11 16 13 2 0 5 1 7 1 5 0 10-2 14-4 6-4 11-9 13-16 2-7 1-15-3-21z m-43-230c-15 0-20 4-32 14-15 13-36 31-75 31-39 0-60-18-75-31-12-10-17-14-32-14-14 0-19 4-31 14-15 13-42 31-75 31v-68c11 0 20-4 32-14 15-13 36-31 75-31 39 0 59 18 75 31 11 10 17 14 31 14 15 0 20-4 32-14 15-13 36-31 75-31s59 18 75 31c12 10 20 14 31 14v68c-33 0-60-18-75-31-12-10-17-14-31-14z m-107 657c-276 0-500-224-500-500s224-500 500-500 500 224 500 500-224 500-500 500z m0-933c-238 0-433 195-433 433s195 433 433 433 433-194 433-433-194-433-433-433z" />
<glyph glyph-name="confused" horiz-adv-x="1000" unicode="&#xeaf7;" d="M399 421c45 0 83 37 83 83 0 5-1 7-2 10l-4 27h-154l-5-27c0-3-1-6-1-11 0-46 37-82 83-82z m162 11c12-8 26-11 40-11 29 0 57 15 72 42 9 16 13 33 10 51l-5 27h-154l-4-27c-6-34 11-66 41-82z m-102-155c-96-16-177-56-180-58l30-60c3 1 287 141 375-16l59 33c-35 62-113 131-284 101z m41 573c-276 0-500-224-500-500s224-500 500-500 500 224 500 500-224 500-500 500z m0-933c-238 0-433 195-433 433s195 433 433 433 433-194 433-433-194-433-433-433z" />
<glyph glyph-name="crying" horiz-adv-x="1000" unicode="&#xeaf8;" d="M500 850c-276 0-500-224-500-500s224-500 500-500 500 224 500 500-224 500-500 500z m0-933c-238 0-433 195-433 433s195 433 433 433 433-194 433-433-194-433-433-433z m-186 268l44-51c80 69 205 69 284 0l44 51c-106 92-266 92-372 0z m85 169c45 0 83 37 83 82s-38 83-83 83c-46 0-83-37-83-83s37-82 83-82z m162 10c12-7 26-10 40-10 29 0 57 15 72 42 23 39 8 90-31 112-40 23-90 8-113-31-22-40-8-90 32-113z m-278-5c-13-1-27-3-39-7-15-5-25-23-22-35 2-13 13-24 26-26 10-2 25 5 31 15 9 17 17 35 26 53-7 0-15 1-22 0z m-29-118c-11 0-23 0-32-8-7-5-13-12-11-21 1-9 8-15 17-18 8-2 15 2 21 8 2 3 4 6 5 9 5 10 9 19 15 30-5 0-10 1-15 0z" />
<glyph glyph-name="dizzy" horiz-adv-x="1000" unicode="&#xeaf9;" d="M482 481c0 46-38 83-83 83s-83-37-83-83 37-82 83-82 83 37 83 82z m-98 0c0 9 7 15 15 15 8 0 15-6 15-15s-7-15-15-15c-8 0-15 7-15 15z m258 72c-40 23-91 8-113-31-11-20-13-42-7-63s19-39 39-50c12-7 26-10 40-10 29 0 57 15 72 42 23 39 8 90-31 112z m-28-79c-4-8-13-10-20-6h0c-5 3-7 7-7 9-1 2-2 7 1 12 3 5 8 7 13 7 3 0 5 0 8-2 7-4 10-13 5-20z m-11-238l-48 48-55-55-55 55-47-48 54-54-64-65 48-47 64 64 64-64 48 47-64 65z m-103 614c-276 0-500-224-500-500s224-500 500-500 500 224 500 500-224 500-500 500z m0-933c-238 0-433 195-433 433s195 433 433 433 433-194 433-433-194-433-433-433z" />
<glyph glyph-name="expressionless" horiz-adv-x="1000" unicode="&#xeafa;" d="M287 249h415v-68h-415v68z m213 601c-276 0-500-224-500-500s224-500 500-500 500 224 500 500-224 500-500 500z m0-933c-238 0-433 195-433 433s195 433 433 433 433-194 433-433-194-433-433-433z m-135 425c3 0 7 1 10 1 45 5 78 46 72 92-5 45-46 77-92 72-21-3-41-14-55-31s-19-39-17-61c5-42 41-73 82-73z m299 155c-19 11-41 13-63 8-21-6-39-20-49-40-11-19-14-41-8-62 6-22 20-39 39-50h0c13-7 27-11 40-11 29 0 57 16 73 42 22 40 8 91-32 113z" />
<glyph glyph-name="heart-eyes" horiz-adv-x="1000" unicode="&#xeafb;" d="M500 850c-276 0-500-224-500-500s224-500 500-500 500 224 500 500-224 500-500 500z m0-933c-238 0-433 195-433 433s195 433 433 433 433-194 433-433-194-433-433-433z m196 300c-4 0-8 0-12-1-13-4-25-10-38-13-41-9-83-11-125-12-41-2-83-1-124 4-24 3-48 8-70 16-6 3-12 4-18 4-7 1-11-3-12-10-2-10 1-20 7-28 26-36 59-66 97-89 30-18 62-29 97-29 23 0 46 4 67 13 42 16 76 42 105 76 12 14 23 29 30 46 2 5 3 10 4 15 0 5-3 8-8 8z m115 256c-14 33-54 51-88 40-10-3-18-7-26-14 0 1 0 1 0 1-6 33-25 53-57 61-25 6-48-1-66-19-15-14-20-32-21-52-1-24 5-46 13-68 15-37 36-69 61-99 0-1 2-2 3-2 8 2 15 3 23 4 34 7 67 17 98 34 19 10 36 23 50 41 17 22 21 47 10 73z m-441-152c1 0 3 1 4 2 24 30 46 62 60 99 8 22 14 44 13 68-1 20-6 38-21 52-18 18-41 25-66 19-32-8-51-28-57-61 0 0 0 0 0-1-8 7-16 11-25 14-35 11-74-7-89-40-11-26-7-51 10-73 14-18 31-31 50-41 31-17 64-27 98-34 8-1 15-2 23-4z" />
<glyph glyph-name="laughing" horiz-adv-x="1000" unicode="&#xeafc;" d="M500 850c-276 0-500-224-500-500s224-500 500-500 500 224 500 500-224 500-500 500z m0-933c-238 0-433 195-433 433s195 433 433 433 433-194 433-433-194-433-433-433z m-59 617c0-27-22-49-49-49s-49 22-49 49c0 27 22 49 49 49s49-22 49-49z m177 43c24-13 32-43 19-67s-43-31-67-18c-23 13-32 43-18 66s43 32 66 19z m-354-323c0-41 11-77 28-108s44-62 76-79c33-16 71-32 115-32h29c42 0 80 16 112 33 33 16 57 43 75 74 18 31 26 70 26 109v121h-461v-118z m56 51h360v-55c0-45-17-83-46-107s-71-40-123-40h-27c-53 0-93 16-122 42-29 26-42 65-42 112v48z" />
<glyph glyph-name="stuck-out-tongue" horiz-adv-x="1000" unicode="&#xeb05;" d="M500 850c-276 0-500-224-500-500s224-500 500-500 500 224 500 500-224 500-500 500z m0-933c-238 0-433 195-433 433s195 433 433 433 433-194 433-433-194-433-433-433z m-59 617c0-27-22-49-49-49s-49 22-49 49c0 27 22 49 49 49s49-22 49-49z m177 43c24-13 32-43 19-67s-43-31-67-18c-23 13-32 43-18 66s43 32 66 19z m115-273h-478c58-45 122-67 188-75 14-1 19-7 21-24 3-27 7-53 12-80 7-37 20-68 50-83 55-27 110 3 133 73 16 48 16 95 0 142 26 16 51 28 76 43-1 2-1 4-2 4z" />
<glyph glyph-name="smirk" horiz-adv-x="1000" unicode="&#xeb04;" d="M283 328h-68c0-158 128-285 285-285v67c-124 0-217 94-217 218z m42 101h148l6 24c2 7 3 12 3 18 0 45-37 82-83 82s-83-37-83-83c0-6 1-10 3-17l6-24z m317 113c-40 22-90 8-113-32-10-18-13-37-8-57l6-24h148l6 24c9 36-7 71-39 89z m-142 308c-276 0-500-224-500-500s224-500 500-500 500 224 500 500-224 500-500 500z m0-933c-238 0-433 195-433 433s195 433 433 433 433-194 433-433-194-433-433-433z" />
<glyph glyph-name="slightly-smile" horiz-adv-x="1000" unicode="&#xeb03;" d="M500 850c-276 0-500-224-500-500s224-500 500-500 500 224 500 500-224 500-500 500z m0-933c-238 0-433 195-433 433s195 433 433 433 433-194 433-433-194-433-433-433z m142 280c-79-69-204-69-284 0-14 12-36 11-48-3-12-14-10-36 4-48 53-46 119-69 186-69s133 23 186 69c14 12 16 34 4 48s-34 15-48 3z m-194 262c0-27-22-49-49-49s-49 22-49 49c0 27 22 49 49 49s49-22 49-49z m177 42c24-13 32-43 19-66s-43-32-67-19c-23 13-32 43-18 67s43 32 66 18z" />
<glyph glyph-name="simple-smile" horiz-adv-x="1000" unicode="&#xeb02;" d="M500 850c-276 0-500-224-500-500s224-500 500-500 500 224 500 500-224 500-500 500z m0-933c-238 0-433 195-433 433s195 433 433 433 433-194 433-433-194-433-433-433z m251 467c-19 0-34-15-34-34 0-120-97-217-217-217s-217 97-217 217c0 19-15 34-34 34s-34-15-34-34c0-157 128-285 285-285s285 128 285 285c0 19-15 34-34 34z m-303 120c0-27-22-49-49-49s-49 22-49 49c0 27 22 49 49 49s49-22 49-49z m177 42c24-13 32-43 19-66s-43-32-67-19c-23 13-32 43-18 67s43 32 66 18z" />
<glyph glyph-name="sad" horiz-adv-x="1000" unicode="&#xeb01;" d="M500 850c-276 0-500-224-500-500s224-500 500-500 500 224 500 500-224 500-500 500z m0-933c-238 0-433 195-433 433s195 433 433 433 433-194 433-433-194-433-433-433z m-186 268l44-51c80 69 205 69 284 0l44 51c-106 92-266 92-372 0z m85 169c45 0 83 37 83 82s-38 83-83 83c-46 0-83-37-83-83s37-82 83-82z m162 10c12-7 26-10 40-10 29 0 57 15 72 42 23 39 8 90-31 112-40 23-90 8-113-31-22-40-8-90 32-113z" />
<glyph glyph-name="rolling-eyes" horiz-adv-x="1000" unicode="&#xeb00;" d="M399 204c-46 0-83-37-83-82s37-83 83-83 83 37 83 83-38 82-83 82z m0-98c-8 0-15 7-15 16s7 15 15 15c8 0 15-7 15-15s-7-16-15-16z m286 439c-59 0-112-33-138-83-14 8-29 12-44 12h-1c-20 0-36-7-48-14-26 51-79 85-139 85-87 0-158-71-158-157 0-87 71-158 158-158s157 71 157 158c0 8-1 16-2 23l14-14c7 6 22 13 44-5 0-2 0-3 0-4 0-87 71-158 157-158s158 71 158 158c0 86-71 157-158 157z m-460-157c0 49 40 90 90 90 24 0 47-10 63-27 0 0-1 0-2 0-45 0-82-37-82-82 0-29 15-55 38-70-6-1-11-1-17-1-50 0-90 40-90 90z m460-90c-5 0-11 0-17 1 11 7 21 17 28 29 22 40 8 90-32 113-13 7-28 11-42 10 16 17 39 27 63 27 50 0 90-41 90-90s-40-90-90-90z m-185 552c-276 0-500-224-500-500s224-500 500-500 500 224 500 500-224 500-500 500z m0-933c-238 0-433 195-433 433s195 433 433 433 433-194 433-433-194-433-433-433z" />
<glyph glyph-name="rage" horiz-adv-x="1000" unicode="&#xeaff;" d="M500 850c-276 0-500-224-500-500s224-500 500-500 500 224 500 500-224 500-500 500z m0-933c-238 0-433 195-433 433s195 433 433 433 433-194 433-433-194-433-433-433z m251 595l-167-75 27-61c-15-7-28-19-37-34-22-40-8-90 32-113 12-7 26-10 40-10 29 0 57 15 72 42 22 40 8 90-31 112-21 12-44 14-65 7l157 71-28 61z m-318-379l30-60c1 0 87 42 141 3l40 54c-87 64-206 5-211 3z m-44 243l28 61-168 75-27-61 156-71c-8 3-16 4-24 4-46 0-83-37-83-83s37-82 83-82c46 0 83 37 83 82 0 33-20 62-48 75z m-38-60c1 0 2 1 3 1 0 0 1 0 1 0-1-1-3-1-4-1z" />
<glyph glyph-name="open-mouth" horiz-adv-x="1000" unicode="&#xeafe;" d="M469 436c0 52-43 95-95 95-53 0-95-43-95-95s42-95 95-95c52 0 95 43 95 95z m-123 0c0 15 13 28 28 28 15 0 27-13 27-28s-12-27-27-27c-15 0-28 12-28 27z m327 83c-22 12-48 15-72 9-25-7-45-23-57-45-13-22-16-48-9-72 7-25 23-45 45-57 14-9 30-13 46-13 9 0 17 1 26 4 24 7 45 23 57 45 12 22 16 47 9 72-7 24-23 44-45 57z m-23-96c-3-7-9-11-16-13-7-2-15-1-21 2h0c-6 4-11 10-13 17-2 7-1 14 3 21 3 6 9 11 16 13 2 0 5 1 7 1 5 0 10-2 14-4 6-4 11-9 13-16 2-7 1-15-3-21z m-150-73c-98 0-178-80-178-178s80-177 178-177 178 79 178 177-80 178-178 178z m0-288c-61 0-110 50-110 110s49 111 110 111 110-50 110-111-49-110-110-110z m0 788c-276 0-500-224-500-500s224-500 500-500 500 224 500 500-224 500-500 500z m0-933c-238 0-433 195-433 433s195 433 433 433 433-194 433-433-194-433-433-433z" />
<glyph glyph-name="nerd-smile" horiz-adv-x="1000" unicode="&#xeafd;" d="M500 850c-276 0-500-224-500-500s224-500 500-500 500 224 500 500-224 500-500 500z m0-933c-238 0-433 195-433 433s195 433 433 433 433-194 433-433-194-433-433-433z m142 272c-79-69-204-69-284 0-14 12-36 11-48-3-12-14-10-36 4-48 53-46 119-69 186-69s133 23 186 69c14 12 16 34 4 48-12 14-34 15-48 3z m-322 251c-27 0-49-22-49-49s22-49 49-49c27 0 49 22 49 49s-22 49-49 49z m395-6c-23 13-53 5-67-19s-4-53 19-66c24-14 53-5 67 18 13 24 5 54-19 67z m-30 122c-60 0-113-34-139-84-14 6-28 10-43 10-20 1-36-6-48-12-26 51-79 86-140 86-87 0-158-70-158-157 0-87 71-158 158-158s157 71 157 158c0 1 0 1 0 2 5 1 9 4 12 8 1 0 8 6 18 6 9 0 19-6 26-12 0-1 0-3 0-4 0-87 71-158 157-158s158 71 158 158c0 87-71 157-158 157z m-370-247c-50 0-90 40-90 90 0 49 40 90 90 90s90-41 90-90c0-50-41-90-90-90z m370 0c-49 0-90 40-90 90 0 49 41 90 90 90s90-41 90-90c0-50-40-90-90-90z" />
<glyph glyph-name="wink-smile" horiz-adv-x="1000" unicode="&#xeb06;" d="M500 111c-120 0-217 93-217 217h-68c0-158 128-285 285-285s285 127 285 285h-68c0-124-97-217-217-217z m-165 318h128l9 16c6 12 10 24 10 37 0 46-38 82-83 82s-83-37-83-83c0-13 3-24 10-36l9-16z m226-20h0c12-7 26-11 40-11 29 0 57 16 72 43 23 39 8 90-31 112-20 11-42 14-63 8-21-6-39-20-50-39-11-20-13-42-7-63 6-21 19-39 39-50z m-61 441c-276 0-500-224-500-500s224-500 500-500 500 224 500 500-224 500-500 500z m0-933c-238 0-433 195-433 433s195 433 433 433 433-194 433-433-194-433-433-433z" />
<glyph glyph-name="worried" horiz-adv-x="1000" unicode="&#xeb07;" d="M500 850c-276 0-500-224-500-500s224-500 500-500 500 224 500 500-224 500-500 500z m0-933c-238 0-433 195-433 433s195 433 433 433 433-194 433-433-194-433-433-433z m0 453c-114 0-213-63-259-165-8-17 0-36 17-44 17-8 36 0 44 17 35 76 111 124 198 124s163-48 198-124c6-13 18-20 31-20 4 0 9 1 14 3 17 7 24 27 16 44-46 102-145 165-259 165z m-101 85c27 0 49 22 49 49s-22 48-49 48-49-21-49-48c0-27 22-49 49-49z m178 6c24-13 54-5 67 19 13 23 5 53-19 66s-53 5-66-18c-14-24-5-54 18-67z" />
<glyph glyph-name="file-alt" horiz-adv-x="1000" unicode="&#xeb08;" d="M827 640c-55 56-110 112-167 165-13 13-28 25-45 34-14 7-28 11-44 11l-298 0c-81 0-142-52-156-132-1-2-2-3-2-5v-726c4-5 2-11 4-17 15-62 63-108 127-118 2 0 4-1 6-2h495c16 5 32 7 47 14 49 24 79 63 88 117 1 2 0 5 3 6v562c-8 38-33 65-58 91z m-19-151c-1-159-1-318-1-478 0-34-12-60-43-76-13-7-26-8-41-8-149 0-298 0-448 0-51 0-83 32-83 84 0 113 0 227 0 340 0 113 0 227 0 340 0 33 14 59 44 74 12 7 25 8 38 8l267 0c15 0 25-6 30-21 5-11 5-23 5-36 1-42 1-85 1-128 0-31 14-45 45-45l127-1c3 0 6 0 9 0 48-4 50-21 50-53z m-92-103c-145 0-289 0-433 0-11 0-15-1-14-4 0-10 1-19 0-29-1-5 4-5 17-5 71 0 142 0 213 0 72 0 145 0 217 0 11 0 14 0 14 4-1 10-1 20 0 30 0 3-4 4-14 4z m-438 45c39 0 78 0 117 0 40 0 80 0 119 0 6 0 8 1 8 8 0 17 0 34 0 51 0 7-2 8-8 8-79 0-158 0-238 0-6 0-8-1-7-8 0-16 0-33-1-49 0-9 3-10 10-10z m438-111c-145 0-289 0-433 0-11 0-15-1-14-5 0-9 1-19 0-28-1-5 4-6 17-6 71 0 142 0 213 0 72 0 145 0 217 0 11 0 14 1 14 5-1 10-1 19 0 29 0 4-4 5-14 5z m0-69c-145 0-289 0-433 0-11 0-15-1-14-5 0-9 1-19 0-28-1-5 4-6 17-6 71 1 142 0 213 0 72 0 145 1 217 0 11 0 14 1 14 5-1 10-1 20 0 29 0 4-4 5-14 5z m-128-99c-84 0-167 0-250 0-7 0-9-1-9-4 1-10 1-19 0-29 0-5 3-5 11-5 41 0 81 0 122 0 42 0 84 0 126 0 6 0 8 0 8 4 0 10 0 20 0 30 0 3-2 4-8 4z m-283 0c-12 0-24 0-35 0-1 0-1-1-1-4 0-10 0-19 0-29 0-5 0-5 1-5 6 0 11 0 17 0 6 0 12 0 18 0 0 0 1 0 1 4 0 10 0 20 0 30 0 3-1 4-1 4z m283-73c-84 0-167 0-250 0-7 0-9-1-9-5 1-9 1-18 0-28 0-5 3-6 11-6 41 1 81 1 122 1 42 0 84 0 126-1 6 0 8 1 8 5 0 10 0 20 0 30 0 3-2 4-8 4z m-283 0c-12 0-24 0-35 0-1 0-1-1-1-5 0-9 0-18 0-28 0-5 0-6 1-6 6 1 11 1 17 1 6 0 12 0 18-1 0 0 1 1 1 5 0 10 0 20 0 30 0 3-1 4-1 4z" />
<glyph glyph-name="file-audio" horiz-adv-x="1000" unicode="&#xeb09;" d="M495 385c0 31 0 62 0 92 0 12-7 17-18 11-38-21-76-43-115-64-3-2-4-4-4-8 0-22 0-43 0-65 0-23 0-46 0-68 0-3 0-4 2-5 40-21 79-42 118-63 9-6 17-1 17 10 0 30 0 60 0 90 0 3 0 5 2 8 14 15 14 38 1 53-3 3-3 6-3 9z m160 142c-2 2-3 3-5 1-8-9-17-18-26-27-2-1-2-2 0-4 6-4 11-9 15-14 45-46 63-101 53-164-7-47-30-85-66-116-3-2-3-3-1-5 9-8 17-16 26-25 2-3 3-2 5 0 10 8 20 18 28 28 35 43 53 93 54 149 0 30-6 60-18 89-15 35-36 64-65 88z m6-148c-7 39-26 71-56 97-3 2-4 2-7 0-8-8-16-17-24-24-2-3-3-4 1-7 38-31 52-72 44-120-6-28-21-52-44-70-3-2-3-4 0-6 8-8 16-15 23-23 3-4 6-4 9-1 37 34 56 75 57 125 0 10-1 19-3 29z m-327 39h-52c-12 0-20-8-20-21v-95c0-11 8-20 20-20 17 0 35 0 52 0 4 0 5 1 5 4-1 21-1 42-1 64 0 21 0 42 1 64 0 3-1 4-5 4z m218 5c-2 2-3 3-6 1-9-10-18-18-27-27-2-2-1-3 1-4 34-20 33-67 1-86-3-1-2-2 0-4 8-9 17-17 25-26 3-2 4-2 7 0 23 19 34 43 35 73 0 29-12 54-36 73z m290 427h-666c-44 0-79-36-79-80v-840c0-44 35-80 79-80h647c44 0 80 36 80 80v859c0 34-27 61-61 61z m-7-556v-364c0-7-5-12-12-12h-647c-6 0-11 5-11 12v840c0 7 5 12 11 12h489c14 0 36-10 45-21l16-18c10-12 20-24 30-35 14-16 28-32 41-48l18-21c10-11 20-37 20-52v-293z" />
<glyph glyph-name="file-avi-mp4" horiz-adv-x="1000" unicode="&#xeb0a;" d="M715 576h-430c-6 0-11-5-11-11v-430c0-6 5-11 11-11l430 0c6 0 11 5 11 11v430c0 6-5 11-11 11z m-148-31c0 7 5 12 11 12h24c6 0 11-5 11-12v-40c0-6-5-11-11-11h-24c-6 0-11 5-11 11v40z m-90 1c0 6 5 11 11 11h24c6 0 11-5 11-11v-42c0-6-5-11-11-11h-24c-6 0-11 5-11 11v42z m-89 0c0 6 5 11 11 11h25c6 0 11-5 11-11v-41c0-6-5-11-11-11h-25c-6 0-11 5-11 11v41z m-95 0c0 6 5 11 12 11h29c6 0 11-5 11-11v-41c0-6-5-11-11-11h-29c-7 0-12 5-12 11v41z m52-391c0-7-5-12-11-12h-30c-6 0-11 5-11 12v40c0 6 5 11 11 11h30c6 0 11-5 11-11v-40z m90 0c0-6-5-11-12-11h-24c-6 0-11 5-11 11v40c0 7 5 12 11 12h24c7 0 12-5 12-12v-40z m88-1c0-6-5-11-11-11h-24c-6 0-11 5-11 11v41c0 7 5 12 11 12h24c6 0 11-5 11-12v-41z m90 1c0-6-5-11-11-11h-24c-6 0-11 5-11 11v40c0 7 5 12 11 12h24c6 0 11-5 11-12v-40z m93-1c0-6-5-11-11-11h-28c-6 0-11 5-11 11v41c0 6 5 11 11 11h28c6 0 11-5 11-11v-41z m0 84c0-7-5-12-11-12h-391c-6 0-11 5-11 12v225c0 6 5 11 11 11h391c6 0 11-5 11-11v-225z m0 267c0-6-5-11-11-11h-27c-6 0-11 5-11 11v41c0 6 5 11 11 11h27c6 0 11-5 11-11v-41z m-234-100c-5 3-12-1-12-7v-106c0-6 7-9 12-7 33 18 66 35 99 53 6 3 6 11 0 14-34 18-66 35-99 53z m370 445h-666c-44 0-79-36-79-80v-840c0-44 35-80 79-80h647c44 0 80 36 80 80v859c0 34-27 61-61 61z m-7-556v-364c0-7-5-12-12-12h-647c-6 0-11 5-11 12v840c0 7 5 12 11 12h489c14 0 36-10 45-21l16-18c10-12 20-24 30-35 14-16 28-32 41-48l18-21c10-11 20-37 20-52v-293z" />
<glyph glyph-name="file-bmp" horiz-adv-x="1000" unicode="&#xeb0b;" d="M714 558c-6-2-13-6-19-7-24-1-40-15-52-33-10-16-9-32 1-48 10-15 24-22 41-20 20 1 33 12 39 30 8 27 7 53-7 78l-3 0z m-81-82c-4-10-8-17-11-25-1-3 0-7 2-8 15-10 29-18 44-26 4-2 11 0 14 3 8 7 13 16 21 27-33-8-55 1-70 29z m-52-124c-5-12-1-26 6-30 7-5 20-1 30 9l0 1c15 20 30 40 46 61-10 5-19 7-28 13-8 4-16 11-25 17-10-24-21-47-29-71z m83 19c-15-18-30-36-46-54-8-10-19-15-32-11-12 4-17 14-20 26-3 14 1 27 7 40 16 35 32 70 47 105 1 3 0 10-3 11-16 11-31 25-48 32-85 36-205 14-263-77-34-52-44-110-27-170 16-57 55-95 107-120 39-19 75-12 105 20 14 15 26 33 37 50 9 15 20 20 37 20 34-3 63 7 84 35 23 30 27 65 23 104-4-5-6-8-8-11z m-290 55c21 0 36-15 36-36 0-20-15-36-36-36-20 0-35 16-35 36 0 20 14 35 35 36z m-20-166c-20 0-36 16-36 36 0 21 15 36 36 36 20 0 35-15 35-36 0-19-15-35-35-36z m71-72c-20 0-37 17-36 37 0 19 17 35 37 35 19-1 34-17 34-36 0-20-16-36-35-36z m29 229c-20 0-36 16-36 37 1 20 16 35 37 34 20 0 36-16 35-36-1-19-16-35-36-35z m388 433h-666c-44 0-79-36-79-80v-840c0-44 35-80 79-80h647c44 0 80 36 80 80v859c0 34-27 61-61 61z m-7-556v-364c0-7-5-12-12-12h-647c-6 0-11 5-11 12v840c0 7 5 12 11 12h489c14 0 36-10 45-21l16-18c10-12 20-24 30-35 14-16 28-32 41-48l18-21c10-11 20-37 20-52v-293z" />
<glyph glyph-name="file-code" horiz-adv-x="1000" unicode="&#xeb0c;" d="M460 279c1 0 1 0 1 1v25c0 1 0 2-1 3l-68 27c-1 0-1 1 0 1l68 26c1 1 1 2 1 3v25c0 1 0 2-1 1l-98-43c-1 0-2-1-2-2v-21c0-1 1-3 2-3l98-43z m24-20c3 0 5 0 6 2 2 1 3 3 3 5 1 2 2 5 3 9l28 117c1 6 2 10 2 12 0 3-1 5-2 7-2 1-5 2-8 2-4 0-7-1-8-3-1-3-3-7-4-13l-28-118c-2-6-2-10-2-11 0-6 3-9 10-9z m154 63c1 1 2 2 2 3v21c0 1-1 2-2 2l-98 43c-1 0-2 0-2-1v-25c0-1 1-2 2-3l68-26c0-1 0-1 0-1l-68-27c-1-1-2-2-2-3v-25c0-1 1-1 2-1l98 43z m67 235h-410c-16 0-28-12-28-28v-358c0-16 12-28 28-28h410c15 0 28 12 28 28v358c0 16-13 28-28 28z m0-386h-410v311h410v-311z m137 679h-666c-44 0-79-36-79-80v-840c0-44 35-80 79-80h647c44 0 80 36 80 80v859c0 34-27 61-61 61z m-7-556v-364c0-7-5-12-12-12h-647c-6 0-11 5-11 12v840c0 7 5 12 11 12h489c14 0 36-10 45-21l16-18c10-12 20-24 30-35 14-16 28-32 41-48l18-21c10-11 20-37 20-52v-293z" />
<glyph glyph-name="file-css" horiz-adv-x="1000" unicode="&#xeb0d;" d="M282 585c2-17 5-34 6-51 5-56 10-112 15-168 4-46 8-93 12-139 2-23 5-45 6-67 1-7 5-8 9-9l154-43c4-1 8-3 12-4h8c24 7 48 14 72 21 31 9 62 17 93 25 6 2 9 5 10 13 5 55 10 111 15 167l14 161c2 29 5 59 8 89 0 2 1 3 1 5v11h-435c0-3 0-7 0-11z m395-26c-2-18-3-36-5-54l-10-119-13-142c-2-18-4-35-5-53 0-7-2-10-8-12-44-11-87-24-131-35-3-1-7-1-11 0-43 11-86 24-129 35-7 2-8 6-9 11-3 39-7 78-10 116-5 48-9 96-13 144-3 36-6 72-10 109l354 0z m-313-95l1-12h213l-5-57h-139l1-15 2-28 1-13h130l-6-72-62-17-62 17-4 44h-56l8-87 114-32 0 0 114 32 1 9 9 106v1l0 2 14 151 1 15h-279l2-15 2-29z m478 386h-666c-44 0-79-36-79-80v-840c0-44 35-80 79-80h647c44 0 80 36 80 80v859c0 34-27 61-61 61z m-7-556v-364c0-7-5-12-12-12h-647c-6 0-11 5-11 12v840c0 7 5 12 11 12h489c14 0 36-10 45-21l16-18c10-12 20-24 30-35 14-16 28-32 41-48l18-21c10-11 20-37 20-52v-293z" />
<glyph glyph-name="file-document" horiz-adv-x="1000" unicode="&#xeb0e;" d="M523 559h192v-46h-192v46z m0-76h192v-47h-192v47z m0-77h192v-46h-192v46z m-238 153h200v-200h-200v200z m0-228h430v-46h-430v46z m0-72v-47h430v48h-430v-1z m0-72h430v-46h-430v46z m557 663h-666c-44 0-79-36-79-80v-840c0-44 35-80 79-80h647c44 0 80 36 80 80v859c0 34-27 61-61 61z m-7-556v-364c0-7-5-12-12-12h-647c-6 0-11 5-11 12v840c0 7 5 12 11 12h489c14 0 36-10 45-21l16-18c10-12 20-24 30-35 14-16 28-32 41-48l18-21c10-11 20-37 20-52v-293z" />
<glyph glyph-name="file-eps" horiz-adv-x="1000" unicode="&#xeb0f;" d="M842 850h-666c-44 0-79-36-79-80v-840c0-44 35-80 79-80h647c44 0 80 36 80 80v859c0 34-27 61-61 61z m-7-556v-364c0-7-5-12-12-12h-647c-6 0-11 5-11 12v840c0 7 5 12 11 12h489c14 0 36-10 45-21l16-18c10-12 20-24 30-35 14-16 28-32 41-48l18-21c10-11 20-37 20-52v-293z m-158 97c-27 50-76 85-132 95l34 15c7-7 19-9 29-5 6 3 12 8 14 15 3 6 3 13 0 20-6 13-22 19-35 13-11-4-17-14-17-24l-73-30c-5-1-10-1-15-2l-13 27-85-35 12-26c-6-4-12-9-17-14l-73-31c-8 7-19 9-29 5-14-6-20-21-14-34 6-13 23-20 36-14 9 4 16 14 16 24l33 14c-30-46-37-105-18-158l-23-10 37-82 85 36-37 82-28-12c-20 58-1 122 47 161l11-24 85 36-10 22c61 5 119-26 148-77l-28-12 37-82 85 35-37 83-25-11z" />
<glyph glyph-name="file-excel" horiz-adv-x="1000" unicode="&#xeb10;" d="M842 850h-666c-44 0-79-36-79-80v-840c0-44 35-80 79-80h647c44 0 80 36 80 80v859c0 34-27 61-61 61z m-7-556v-364c0-7-5-12-12-12h-647c-6 0-11 5-11 12v840c0 7 5 12 11 12h489c14 0 36-10 45-21l16-18c10-12 20-24 30-35 14-16 28-32 41-48l18-21c10-11 20-37 20-52v-293z m-170 245h-104l-61-126-62 126h-104l105-187-108-191h105l64 128 63-128h105l-108 191 105 187z" />
<glyph glyph-name="file-javascript" horiz-adv-x="1000" unicode="&#xeb19;" d="M277 588c2-18 5-35 6-52 6-58 11-115 16-172 4-47 8-95 12-143 2-23 4-45 6-68 0-7 4-8 9-10 53-14 105-29 158-43 4-1 8-3 12-4h8c24 7 49 14 74 21 31 9 63 18 94 26 7 2 10 5 11 13 4 57 10 114 15 171 5 55 9 110 14 164 3 31 6 62 8 92 1 2 2 3 2 5v12h-445c0-4 0-8 0-12z m404-26c-2-19-3-37-5-55l-11-123c-4-48-8-96-13-145-1-18-3-36-4-55-1-6-2-10-9-11-44-12-89-25-133-37-4-1-8-1-12 0-44 12-88 25-132 36-7 2-9 6-9 12-4 40-7 79-11 119-4 49-9 97-13 146-3 38-6 75-10 113l362 0z m-132-311c-16-4-32-9-48-13-4-1-8-1-12 0-15 4-29 8-44 12-8 1-10 6-10 12 0 2 0 4 0 6-1 9-2 18-3 27h-52c0-6 0-12 1-18 1-19 4-38 5-56 0-8 3-10 9-12 32-8 64-17 95-26 4-1 9-1 13 0 15 4 30 8 45 12 19 6 38 11 58 17l14 164h-182c0 2-1 4-1 6 3 25 5 50 8 75 0 1 3 4 5 4 37 0 74-1 112-2 2-19 3-38 5-56h53c-3 38-6 76-10 114h-8c-66 0-131 0-197 0-7 0-8-3-9-9-1-18-3-35-4-53-2-19-4-39-6-58-1-14-2-28-4-41-1-11-1-22-2-33h182c-2-22-4-43-6-65 0-5-3-6-7-7z m293 599h-666c-44 0-79-36-79-80v-840c0-44 35-80 79-80h647c44 0 80 36 80 80v859c0 34-27 61-61 61z m-7-556v-364c0-7-5-12-12-12h-647c-6 0-11 5-11 12v840c0 7 5 12 11 12h489c14 0 36-10 45-21l16-18c10-12 20-24 30-35 14-16 28-32 41-48l18-21c10-11 20-37 20-52v-293z" />
<glyph glyph-name="file-java" horiz-adv-x="1000" unicode="&#xeb18;" d="M485 317l17-13-10 19c-1 0-32 61-31 105 0 15 22 32 45 50 20 17 44 36 58 58 30 48-4 96-4 97l-13 18 5-22c0 0 6-32-12-65-7-13-24-25-43-38-28-19-59-40-75-76-29-62 59-130 63-133z m-37-64c9 0 18 0 28 0 103 4 141 35 142 37l16 13-20-5c-24-7-63-10-100-12l14 9c2 2 46 32 38 69-3 14-10 25-16 34-10 14-17 24-6 43 12 22 68 63 68 64l27 20-31-12c-5-2-114-43-114-94 0-34 15-53 26-66 4-5 8-10 9-14 3-11-5-31-8-38l-8-15c-18-1-35-1-50-1-53 0-80 3-86 6 3 5 24 13 50 18l-1 9c-15 0-91-1-99-24-1-6-1-11 3-16 12-17 54-25 118-25z m224 73c-21 0-41-10-42-11l-17-9h19c1 0 46 0 50-25 4-22-42-58-61-69l-21-14 25 5c4 1 105 23 94 81-6 35-29 42-47 42z m-62-109l-35 24-2 0c0 0-25-7-62-11-14-2-31-2-47-2-37 0-61 4-64 7-1 1 0 1 0 2 0 1 4 3 6 4l-3 9c-24-5-36-13-35-23 2-18 44-28 79-30 6 0 11 0 17 0 59 0 135 18 136 18l10 2z m-174-28l-17 0c-3 0-32-2-34-19 0-6 1-10 5-15 10-12 37-19 84-22 6 0 11 0 17 0 59 0 99 18 100 19l8 4-39 24-2-1c0 0-20-4-49-8-5 0-12-1-20-1-30 0-62 5-68 8 0 1 0 1 1 2l14 9z m249-72c5 5 6 10 5 13-1 8-8 13-9 14l-28 18 22-25c0-1 2-3-1-6-6-5-62-20-157-25-13-1-26-1-40-1-87 0-149 12-154 17 1 5 24 12 48 16l-1 10c-1 0-3 0-5-1-39-2-83-7-85-26-1-6 1-12 5-16 10-12 40-27 178-27 136 0 208 24 222 39z m-60-39c-24-5-68-7-131-7-64 0-124 2-125 2l-1-9c1 0 64-15 150-15 42 0 82 3 120 10 72 12 76 47 77 49l1 14-9-11c-1 0-21-21-82-33z m217 772h-666c-44 0-79-36-79-80v-840c0-44 35-80 79-80h647c44 0 80 36 80 80v859c0 34-27 61-61 61z m-7-556v-364c0-7-5-12-12-12h-647c-6 0-11 5-11 12v840c0 7 5 12 11 12h489c14 0 36-10 45-21l16-18c10-12 20-24 30-35 14-16 28-32 41-48l18-21c10-11 20-37 20-52v-293z" />
</font>
</defs>
</svg>
